<svg width="100" height="100" viewBox="0 0 100 100" fill="none" xmlns="http://www.w3.org/2000/svg">
  <path
    d="M90.7491 86.9694L59.3705 10.8492C58.8314 9.17692 57.7839 7.71459 56.374 6.66607C54.9642 5.61755 53.2623 5.03513 51.5056 5H48.7295C46.9729 5.03513 45.271 5.61755 43.8611 6.66607C42.4513 7.71459 41.4038 9.17692 40.8646 10.8492L27.2181 44.0185H16.8695C15.3847 44.035 13.9659 44.6343 12.9189 45.6872C11.8718 46.7401 11.2805 48.1623 11.2723 49.6472V49.7237C11.2806 51.2139 11.8763 52.6408 12.9301 53.6946C13.9839 54.7484 15.4108 55.3441 16.901 55.3524H22.4398L9.3916 86.9694C9.14465 87.6631 9.01391 88.3928 9.00465 89.1291C8.94294 90.691 9.49715 92.2147 10.5479 93.372C11.086 93.9232 11.7357 94.353 12.4536 94.6324C13.1714 94.9117 13.9407 95.0343 14.7098 94.9918C15.8755 94.9763 17.0075 94.5989 17.9494 93.9119C18.942 93.1805 19.7191 92.1951 20.1991 91.0593L34.5385 55.3569H44.4866C45.9785 55.3498 47.4072 54.754 48.4621 53.6991C49.517 52.6442 50.1127 51.2155 50.1198 49.7237V49.5707C50.1116 48.0804 49.5159 46.6535 48.4621 45.5997C47.4083 44.5459 45.9814 43.9503 44.4911 43.942H39.1684L50.1153 16.5679L79.9551 91.0548C80.4351 92.1905 81.2122 93.176 82.2048 93.9074C83.1466 94.5944 84.2787 94.9718 85.4443 94.9873C86.2135 95.0298 86.9828 94.9072 87.7006 94.6279C88.4185 94.3485 89.0682 93.9187 89.6063 93.3675C90.657 92.2102 91.2112 90.6865 91.1495 89.1246C91.1733 88.3857 91.0367 87.6504 90.7491 86.9694Z"
    fill="url(#paint0_linear_542_82)" />
  <defs>
    <linearGradient id="paint0_linear_542_82" x1="4.81014" y1="65.93" x2="332.716" y2="-3.88869"
      gradientUnits="userSpaceOnUse">
      <stop stop-color="#30BAC6" />
      <stop offset="1" stop-color="#B6509E" />
    </linearGradient>
  </defs>
</svg>
  