<svg width="100" height="101" viewBox="0 0 100 101" fill="none" xmlns="http://www.w3.org/2000/svg">
  <path fill-rule="evenodd" clip-rule="evenodd"
    d="M81.5718 6.00004C81.5718 3.23859 79.3331 1 76.5716 1H65.6305C62.8692 1 60.6306 3.23859 60.6306 6.00004V16.8334C60.6306 19.5949 62.8692 21.8335 65.6305 21.8335H72.5067C75.2683 21.8335 77.5069 24.0721 77.5069 26.8335V95.9994C77.5069 98.761 79.7455 101 82.5068 101H93.4482C96.2094 101 98.448 98.761 98.448 95.9994V26.8324C98.448 24.0709 96.2094 21.8323 93.4482 21.8323H86.572C83.8104 21.8323 81.5718 19.5938 81.5718 16.8323V6.00004ZM39.5475 6.00036C39.5475 3.2389 37.3089 1.00031 34.5475 1.00031H23.6063C20.8449 1.00031 18.6063 3.2389 18.6063 6.00036V16.8329C18.6063 19.5944 16.3677 21.833 13.6063 21.833H6.00002C3.23859 21.833 1 24.0716 1 26.833V96.0002C1 98.7614 3.23859 101 6.00002 101H16.9412C19.7027 101 21.9412 98.7614 21.9412 96.0002V26.8338C21.9412 24.0724 24.1798 21.8338 26.9412 21.8338H34.5475C37.3089 21.8338 39.5475 19.5952 39.5475 16.8338V6.00036ZM60.3412 45.8805C60.3412 43.1193 58.1026 40.8806 55.341 40.8806H44.4C41.6384 40.8806 39.3998 43.1193 39.3998 45.8805V76.357C39.3998 79.1186 41.6384 81.3572 44.4 81.3572H55.341C58.1026 81.3572 60.3412 79.1186 60.3412 76.357V45.8805Z"
    fill="#2B6CB0" />
</svg>
  