<svg width="100" height="100" viewBox="0 0 100 100" fill="none" xmlns="http://www.w3.org/2000/svg">
  <rect width="100" height="100" rx="50" fill="#010424" />
  <mask id="mask0_528_146" style="mask-type:alpha" maskUnits="userSpaceOnUse" x="15" y="15"
    width="36" height="70">
    <path
      d="M50.1008 31.3998L50.1481 15.1012C30.8421 15.0453 15.1572 30.6396 15.1013 49.9512C15.0453 69.2571 30.6396 84.9421 49.9456 84.998L49.9928 68.6994C39.6865 68.6696 31.3699 60.3047 31.3998 49.9984C31.4297 39.6921 39.7946 31.3699 50.1008 31.3998Z"
      fill="white" />
    <path
      d="M50.1031 31.403L50.1503 15.1022C30.8393 15.0463 15.1572 30.6395 15.1013 49.9493C15.0453 69.2598 30.6379 84.9442 49.9478 85.0001L49.995 68.6987C39.6882 68.6689 31.3722 60.3045 31.4021 49.9966C31.4319 39.6903 39.7963 31.3732 50.1031 31.403Z"
      fill="white" />
  </mask>
  <g mask="url(#mask0_528_146)">
    <path
      d="M50.1008 31.3988L50.1481 15.1003C30.8421 15.0444 15.1572 30.6387 15.1013 49.9502C15.0453 69.2562 30.6396 84.9411 49.9456 84.997L49.9928 68.6985C39.6865 68.6686 31.3699 60.3037 31.3998 49.9975C31.4297 39.6912 39.7946 31.369 50.1008 31.3988ZM51.302 87.2481C30.5655 87.188 13.8088 70.3339 13.8689 49.5975C13.929 28.8611 30.7831 12.1044 51.5195 12.1644C50.9009 31.2716 50.799 66.4706 51.302 87.2481Z"
      fill="white" />
    <path
      d="M50.1031 31.402L50.1503 15.1013C30.8393 15.0453 15.1572 30.6385 15.1013 49.9484C15.0453 69.2588 30.6379 84.9432 49.9478 84.9991L49.995 68.6978C39.6882 68.6679 31.3722 60.3036 31.4021 49.9956C31.4319 39.6893 39.7963 31.3722 50.1031 31.402Z"
      fill="white" />
  </g>
  <path
    d="M77.2431 76.6506C77.2431 81.1575 73.5838 84.8168 69.0769 84.8168C64.57 84.8168 60.9107 81.1575 60.9107 76.6506C60.9107 72.1436 64.57 68.4844 69.0769 68.4844C73.5838 68.4844 77.2431 72.1436 77.2431 76.6506Z"
    fill="#FF4B8A" />
  <path
    d="M77.4543 23.4992C77.4543 28.0061 73.795 31.6654 69.2881 31.6654C64.7812 31.6654 61.1219 28.0061 61.1219 23.4992C61.1219 18.9923 64.7812 15.333 69.2881 15.333C73.795 15.333 77.4543 18.9923 77.4543 23.4992Z"
    fill="#00D8D5" />
</svg>
  