<svg width="100" height="101" viewBox="0 0 100 101" fill="none" xmlns="http://www.w3.org/2000/svg">
  <path
    d="M20.7832 48.4444C20.7833 47.8863 20.8936 47.3337 21.1079 46.8183C21.3221 46.3029 21.636 45.835 22.0316 45.4413C22.4273 45.0476 22.8967 44.7359 23.4132 44.5241C23.9296 44.3123 24.4827 44.2046 25.0409 44.2073L32.1001 44.2303C33.2255 44.2303 34.305 44.6774 35.1008 45.4733C35.8967 46.2691 36.3438 47.3485 36.3438 48.474V75.1659C37.1385 74.93 38.1592 74.6786 39.276 74.4156C40.0518 74.2334 40.7431 73.7944 41.238 73.1698C41.7328 72.5451 42.0021 71.7716 42.0019 70.9748V37.8647C42.0019 36.7391 42.4489 35.6596 43.2448 34.8636C44.0406 34.0676 45.12 33.6204 46.2456 33.6201H53.3188C54.4443 33.6204 55.5238 34.0676 56.3196 34.8636C57.1154 35.6596 57.5626 36.7391 57.5626 37.8647V68.594C57.5626 68.594 59.3335 67.8774 61.0585 67.1493C61.6992 66.8784 62.246 66.4246 62.6307 65.8449C63.0154 65.2652 63.2208 64.585 63.2214 63.8892V27.2553C63.2214 26.1299 63.6684 25.0506 64.4641 24.2548C65.2597 23.4589 66.3389 23.0118 67.4643 23.0116H74.5375C75.6631 23.0116 76.7424 23.4586 77.5383 24.2545C78.3341 25.0504 78.7813 26.1298 78.7813 27.2553V57.4225C84.9135 52.9783 91.1279 47.6333 96.0595 41.2061C96.7753 40.2732 97.2486 39.1777 97.4376 38.0174C97.6267 36.8571 97.5256 35.6679 97.1434 34.5561C94.8605 27.9882 91.2323 21.969 86.4897 16.8839C81.7471 11.7989 75.9953 7.75985 69.6023 5.0253C63.2092 2.29077 56.3157 0.920951 49.3628 1.00352C42.4099 1.08609 35.5509 2.61924 29.2246 5.50483C22.8983 8.39043 17.244 12.5649 12.6237 17.7612C8.00329 22.9574 4.51857 29.061 2.3925 35.6814C0.266432 42.3017 -0.454163 49.293 0.276822 56.2078C1.00781 63.1226 3.17429 69.8086 6.6376 75.8381C7.24092 76.8782 8.12853 77.7246 9.19612 78.2777C10.2637 78.8309 11.467 79.0679 12.6647 78.9609C14.0025 78.8434 15.6683 78.6766 17.6488 78.444C18.511 78.3462 19.307 77.9345 19.8851 77.2875C20.4633 76.6405 20.7833 75.8035 20.784 74.9358L20.7832 48.4444Z"
    fill="#21325B" />
  <path
    d="M20.6288 91.2557C28.0843 96.6796 36.8952 99.9355 46.0864 100.663C55.2776 101.389 64.4909 99.56 72.7067 95.3754C80.9225 91.1908 87.8202 84.8153 92.6375 76.9539C97.4541 69.0924 100.002 60.0514 100 50.8314C100 49.6809 99.9466 48.5427 99.8702 47.4111C81.6107 74.6437 47.8967 87.3752 20.6303 91.2516"
    fill="#979695" />
</svg>
  