<svg width="100" height="100" viewBox="0 0 100 100" fill="none" xmlns="http://www.w3.org/2000/svg">
  <path
    d="M99.9915 76.9135V72.0619C99.9915 71.1597 98.4739 70.2977 95.7494 69.5238L95.8155 63.4813C95.8155 54.1769 92.9286 45.0972 87.5437 37.4688C82.1397 29.8274 74.5225 24.0267 65.7193 20.8489L65.5248 19.638C65.4239 18.9894 65.1401 18.3829 64.7068 17.8898C64.2714 17.3948 63.705 17.0328 63.0729 16.8453C54.6107 14.3849 45.6229 14.3849 37.1607 16.8453C36.5252 17.0318 35.9578 17.3926 35.5208 17.8878C35.0857 18.381 34.799 18.9865 34.6988 19.636L34.5123 20.7647C25.6551 23.9126 17.9819 29.7113 12.5356 37.3726C7.11573 44.9994 4.20184 54.1229 4.19755 63.4793V69.5479C1.5111 70.3197 0.0135087 71.1717 0.0135087 72.0659V76.9196C-0.0299013 77.2043 0.0321182 77.4952 0.187927 77.7375C1.52798 76.747 3.06366 76.0533 4.69274 75.7026C8.84672 74.7002 13.0709 73.9985 17.3291 73.6056C18.5211 73.4723 19.7278 73.5921 20.8703 73.9573C22.0128 74.3224 23.0653 74.9247 23.959 75.7247C27.2603 78.7113 31.5541 80.3641 36.0059 80.3618H64.0011C68.4528 80.3644 72.7462 78.7108 76.0461 75.7227C76.9382 74.9185 77.9901 74.3119 79.133 73.9425C80.2759 73.5732 81.4839 73.4495 82.678 73.5795C86.9342 73.9705 91.1583 74.6681 95.3123 75.6685C96.856 75.9612 98.3155 76.5948 99.5826 77.521C99.6527 77.5912 99.7389 77.6533 99.7991 77.7215C99.9571 77.4836 100.025 77.1972 99.9915 76.9135Z"
    fill="#FFF100" />
  <path
    d="M24.0252 66.6977C23.9875 65.5801 23.9674 64.462 23.965 63.3437C23.9791 46.4712 27.9586 31.3389 34.5144 20.7715C25.6577 23.9183 17.9846 29.7155 12.5376 37.3753C7.11783 45.0008 4.20328 54.1228 4.19757 63.478V69.5466C10.7086 68.0079 17.3443 67.0552 24.0252 66.6998V66.6977Z"
    fill="url(#paint0_linear_531_22)" />
  <path
    d="M95.8115 63.4785C95.8205 52.9294 92.1196 42.7131 85.3564 34.6172C88.2911 43.9053 89.7537 53.5956 89.6908 63.3361C89.6908 64.9801 89.6467 66.604 89.5705 68.2179C91.6471 68.5372 93.7045 68.9709 95.7333 69.517L95.8115 63.4785Z"
    fill="url(#paint1_linear_531_22)" />
  <path
    d="M95.3123 75.6844C91.1564 74.682 86.9322 73.9804 82.676 73.5874C81.4828 73.4556 80.2753 73.5774 79.1324 73.9446C77.9896 74.3119 76.9371 74.9164 76.0441 75.7185C72.7435 78.7064 68.4493 80.3593 63.9972 80.3557H36.014C31.5644 80.3572 27.2731 78.7052 23.9731 75.7205C23.0815 74.9153 22.0297 74.3077 20.8867 73.9377C19.7438 73.5677 18.5355 73.4435 17.3411 73.5734C13.0829 73.9663 8.86078 74.666 4.70481 75.6684C3.0779 76.0238 1.54382 76.7171 0.201996 77.7033C2.3271 80.925 23.8227 84.3071 50.0136 84.3071C76.2065 84.3071 97.692 80.913 99.8212 77.7053C99.747 77.6391 99.6648 77.577 99.6026 77.5068C98.3199 76.5985 96.8567 75.977 95.3123 75.6844Z"
    fill="url(#paint2_radial_531_22)" />
  <path d="M49.9995 29.249L39.2818 47.3385L49.9995 53.9303V29.249Z" fill="#0A0A0A" />
  <path
    d="M50.0035 29.2568V53.9261L60.7193 47.3423L50.0035 29.2568ZM50.0035 57.5107V66.1113C50.204 65.8266 60.7193 50.9148 60.7193 50.9088L50.0035 57.5107Z"
    fill="#4B4D4D" />
  <path d="M50.0036 57.5117L39.2858 50.9199L50.0036 66.1164V57.5077V57.5117Z" fill="#0A0A0A" />
  <defs>
    <linearGradient id="paint0_linear_531_22" x1="19.356" y1="69.5466" x2="19.356" y2="20.7715"
      gradientUnits="userSpaceOnUse">
      <stop stop-color="#EDCF00" />
      <stop offset="0.33" stop-color="#F0D500" />
      <stop offset="0.77" stop-color="#F9E500" />
      <stop offset="1" stop-color="#FFF100" />
    </linearGradient>
    <linearGradient id="paint1_linear_531_22" x1="90.583" y1="69.9019" x2="90.583" y2="34.6172"
      gradientUnits="userSpaceOnUse">
      <stop stop-color="#EDCF00" />
      <stop offset="0.59" stop-color="#F7E100" />
      <stop offset="1" stop-color="#FFF100" />
    </linearGradient>
    <radialGradient id="paint2_radial_531_22" cx="0" cy="0" r="1" gradientUnits="userSpaceOnUse"
      gradientTransform="translate(5.60296 102.868) scale(37.1688 36.9158)">
      <stop stop-color="#FFF100" />
      <stop offset="0.23" stop-color="#F9E500" />
      <stop offset="0.67" stop-color="#F0D500" />
      <stop offset="1" stop-color="#EDCF00" />
    </radialGradient>
  </defs>
</svg>
  