<svg width="100" height="100" viewBox="0 0 100 100" fill="none" xmlns="http://www.w3.org/2000/svg">
  <path
    d="M59.9475 40.0168C59.948 41.3292 59.69 42.6288 59.1882 43.8415C58.6864 45.0542 57.9506 46.1561 57.0229 47.0845C56.0953 48.0128 54.9938 48.7493 53.7815 49.252C52.5692 49.7546 51.2697 50.0136 49.9573 50.014V60.0112C52.5821 60.0103 55.181 59.4924 57.6057 58.4871C60.0303 57.4818 62.2332 56.0087 64.0885 54.1521C65.9439 52.2954 67.4154 50.0915 68.419 47.6662C69.4226 45.2409 69.9387 42.6416 69.9377 40.0168C69.9391 36.5086 69.0172 33.0619 67.2644 30.023C65.5117 26.984 62.99 24.4599 59.9527 22.7043C56.9154 20.9487 53.4696 20.0234 49.9614 20.0215C46.4532 20.0195 43.0064 20.941 39.9671 22.6932C36.9273 24.4483 34.4035 26.9732 32.6497 30.0137C30.8959 33.0543 29.974 36.5032 29.9769 40.0133V89.9993L38.959 98.9954L39.9671 100V40.0203C39.9318 38.6861 40.1641 37.3584 40.6503 36.1154C41.1364 34.8725 41.8667 33.7395 42.7978 32.7834C43.729 31.8272 44.8423 31.0673 46.0719 30.5484C47.3016 30.0295 48.6227 29.7621 49.9573 29.7621C51.292 29.7621 52.6131 30.0295 53.8428 30.5484C55.0724 31.0673 56.1857 31.8272 57.1169 32.7834C58.048 33.7395 58.7782 34.8725 59.2644 36.1154C59.7506 37.3584 59.9829 38.6861 59.9475 40.0203V40.0168Z"
    fill="#131023" />
  <path
    d="M49.9608 0C42.68 0 35.8577 1.94974 29.9804 5.35564C26.2282 7.52611 22.854 10.2926 19.9902 13.5466C13.5407 20.8451 9.9869 30.2525 10 39.9923V69.9909L19.9902 79.9846V39.9923C19.9854 35.7721 20.873 31.5985 22.5947 27.7455C24.3164 23.8924 26.8334 20.447 29.9804 17.6351C35.4714 12.7133 42.5869 9.99327 49.9608 9.9972C66.5143 9.9972 79.935 23.4283 79.935 39.9958C79.935 56.5563 66.5143 69.9874 49.9608 69.9874V79.9846C72.0345 79.9846 89.9252 62.08 89.9252 39.9923C89.9252 17.9047 72.0345 0 49.9608 0Z"
    fill="#131023" />
</svg>
  