<svg width="100" height="100" viewBox="0 0 100 100" fill="none" xmlns="http://www.w3.org/2000/svg">
  <path opacity="0.752" fill-rule="evenodd" clip-rule="evenodd"
    d="M47.5 10C49.1666 10 50.8334 10 52.5 10C54.7361 14.5227 53.9028 18.2727 50 21.25C46.072 18.3169 45.2388 14.5669 47.5 10Z"
    fill="#FCA668" />
  <path opacity="0.678" fill-rule="evenodd" clip-rule="evenodd"
    d="M25 15C30.641 16.6418 32.7242 20.1834 31.25 25.625C26.3484 26.581 23.4318 24.4976 22.5 19.375C23.0979 17.7467 23.9312 16.2884 25 15Z"
    fill="#FCA668" />
  <path opacity="0.678" fill-rule="evenodd" clip-rule="evenodd"
    d="M72.5 15C77.6116 16.3731 78.6532 19.2897 75.625 23.75C72.0757 27.3858 69.3674 26.9691 67.5 22.5C68.5586 19.5363 70.2252 17.0363 72.5 15Z"
    fill="#FCA668" />
  <path opacity="0.863" fill-rule="evenodd" clip-rule="evenodd"
    d="M43.75 26.25C60.5755 25.0761 73.0755 31.7429 81.25 46.25C73.125 46.6666 65 47.0834 56.875 47.5C47.7908 47.6655 38.8324 47.0405 30 45.625C26.9331 43.4499 25.0581 40.7416 24.375 37.5C30.0856 32.2557 36.544 28.5057 43.75 26.25Z"
    fill="#FCA668" />
  <path opacity="0.703" fill-rule="evenodd" clip-rule="evenodd"
    d="M7.5 32.5002C11.8643 32.4792 15.1976 34.3542 17.5 38.1252C14.715 43.2757 11.3817 43.6924 7.5 39.3752C6.66666 38.1252 5.83334 36.8752 5 35.6252C6.10066 34.7398 6.934 33.6982 7.5 32.5002Z"
    fill="#FCA668" />
  <path opacity="0.718" fill-rule="evenodd" clip-rule="evenodd"
    d="M87.5 32.501C92.7215 31.678 94.5965 33.7612 93.125 38.751C89.1975 43.9612 85.6558 43.7528 82.5 38.126C83.9985 36.0081 85.6652 34.1331 87.5 32.501Z"
    fill="#FCA668" />
  <path opacity="0.794" fill-rule="evenodd" clip-rule="evenodd"
    d="M20 42.5C23.4068 44.0163 26.3235 46.308 28.75 49.375C46.6666 49.7916 64.5834 50.2084 82.5 50.625C83.6539 53.176 84.0705 55.8844 83.75 58.75C61.25 58.75 38.75 58.75 16.25 58.75C16.218 53.0182 17.468 47.6016 20 42.5Z"
    fill="#FC684D" />
  <path opacity="0.666" fill-rule="evenodd" clip-rule="evenodd"
    d="M0 62.4995C0 60.4161 0 58.3329 0 56.2495C4.86446 53.8536 8.61446 54.8952 11.25 59.3745C8.53238 63.7024 4.78238 64.744 0 62.4995Z"
    fill="#FCA668" />
  <path opacity="0.665" fill-rule="evenodd" clip-rule="evenodd"
    d="M100 56.2495C100 58.3329 100 60.4161 100 62.4995C95.2176 64.744 91.4676 63.7024 88.75 59.3745C91.3855 54.8952 95.1355 53.8536 100 56.2495Z"
    fill="#FCA668" />
  <path opacity="0.793" fill-rule="evenodd" clip-rule="evenodd"
    d="M16.25 62.5C38.75 62.5 61.25 62.5 83.75 62.5C84.0599 68.6464 82.3932 74.063 78.75 78.75C76.0127 76.22 73.096 73.9284 70 71.875C52.0881 71.2501 34.1715 71.0417 16.25 71.25C16.25 68.3334 16.25 65.4166 16.25 62.5Z"
    fill="#FC684D" />
  <path opacity="0.708" fill-rule="evenodd" clip-rule="evenodd"
    d="M0 74.9999C22.9205 74.7917 45.8371 75.0001 68.75 75.6249C70.234 76.8993 71.484 78.3576 72.5 79.9999C49.1779 81.4578 25.8445 81.6662 2.5 80.6249C1.81975 79.7284 0.986412 79.1034 0 78.7499C0 77.4999 0 76.2499 0 74.9999Z"
    fill="#FCA668" />
  <path opacity="0.666" fill-rule="evenodd" clip-rule="evenodd"
    d="M100 74.9995C100 76.2495 100 77.4995 100 78.7495C94.5295 81.2925 88.6961 81.9175 82.5 80.6245C83.4914 79.268 84.3248 77.8096 85 76.2495C89.9317 75.0108 94.9318 74.5942 100 74.9995Z"
    fill="#FCA668" />
  <path opacity="0.879" fill-rule="evenodd" clip-rule="evenodd"
    d="M90 90C63.3334 90 36.6666 90 10 90C8.78365 88.0396 8.57533 85.9562 9.375 83.75C36.5725 84.9921 63.8641 85.4087 91.25 85C91.3342 86.8234 90.9176 88.4901 90 90Z"
    fill="#FCA668" />
</svg>
  