<svg width="100" height="100" viewBox="0 0 100 100" fill="none" xmlns="http://www.w3.org/2000/svg">
  <path
    d="M24.162 31.3649C23.4633 30.569 22.6013 30.1702 21.5763 30.1702H0.627768C0.439778 30.1702 0.287291 30.1115 0.173788 29.9944C0.0567374 29.879 0 29.7486 0 29.6087V15.5614C0 15.4216 0.0567374 15.293 0.173788 15.1758C0.287291 15.0605 0.439778 15 0.627768 15H22.7645C28.351 15 33.1677 17.2722 37.2184 21.8128L42.5992 28.3441L32.1215 41.0567L24.162 31.3649ZM62.8489 21.7429C66.8996 17.2476 71.7412 15 77.3738 15H99.4431C99.6275 15 99.7659 15.0473 99.8617 15.1399C99.9539 15.2344 100 15.3743 100 15.5614V29.6087C100 29.7486 99.9539 29.879 99.8617 29.9944C99.7659 30.1115 99.6275 30.1702 99.4431 30.1702H78.4911C77.466 30.1702 76.6077 30.569 75.9089 31.3649L60.4724 50.0473L75.9763 68.8697C76.675 69.6202 77.5122 69.9944 78.4911 69.9944H99.4431C99.6275 69.9944 99.7659 70.053 99.8617 70.1704C99.9539 70.2874 100 70.4406 100 70.6258V84.6733C100 84.813 99.9539 84.9435 99.8617 85.0588C99.7659 85.1759 99.6275 85.2344 99.4431 85.2344H77.3738C71.7412 85.2344 66.9244 82.9643 62.9198 78.4217L50.0692 62.8299L37.2184 78.4217C33.1677 82.9643 28.3262 85.2344 22.6936 85.2344H0.627768C0.439778 85.2344 0.297942 85.1759 0.20572 85.0588C0.113499 84.9414 0.0673827 84.7903 0.0673827 84.6013V70.5541C0.0673827 70.414 0.113499 70.2856 0.20572 70.1682C0.297942 70.0512 0.439778 69.9927 0.627768 69.9927H21.5763C22.5552 69.9927 23.4136 69.5954 24.162 68.7977L39.3147 50.397L62.8489 21.7429Z"
    fill="#00D1FF" />
</svg>
  