<svg width="100" height="101" viewBox="0 0 100 101" fill="none" xmlns="http://www.w3.org/2000/svg">
  <path fill-rule="evenodd" clip-rule="evenodd"
    d="M44.3332 56.5554C32.0605 56.5554 22.1111 46.6066 22.1111 34.3332C22.1111 22.0599 32.0605 12.1111 44.3332 12.1111C56.6066 12.1111 66.5554 22.0599 66.5554 34.3332C66.5554 46.6066 56.6066 56.5554 44.3332 56.5554ZM44.3332 1C62.7426 1 77.6664 15.9239 77.6664 34.3332C77.6664 52.7426 62.7426 67.6664 44.3332 67.6664C25.9239 67.6664 11 52.7426 11 34.3332C11 15.9239 25.9239 1 44.3332 1ZM76.0395 69.2934C78.2092 71.4631 78.2092 74.9802 76.0395 77.1499L53.8167 99.3727C51.647 101.542 48.1298 101.542 45.9601 99.3727C43.7905 97.203 43.7905 93.6859 45.9601 91.5162L68.183 69.2934C70.3527 67.1237 73.8698 67.1237 76.0395 69.2934ZM88.7775 6.55553C88.7775 9.62421 86.2907 12.1111 83.2227 12.1111C80.154 12.1111 77.6671 9.62421 77.6671 6.55553C77.6671 3.48686 80.154 1 83.2227 1C86.2907 1 88.7775 3.48686 88.7775 6.55553Z"
    fill="#0C0A1C" />
</svg>
  