<svg width="100" height="100" viewBox="0 0 100 100" fill="none" xmlns="http://www.w3.org/2000/svg">
  <path fill-rule="evenodd" clip-rule="evenodd"
    d="M6.36125 8H93.6441C97.1508 8 100 10.8545 100 14.3773V86.4359C100 89.0766 97.8618 91.2148 95.2317 91.2148H81.2102C80.5834 91.2141 79.9628 91.09 79.3839 90.8494C78.805 90.6089 78.2791 90.2567 77.8363 89.8129C77.3936 89.3691 77.0425 88.8425 76.8033 88.2631C76.564 87.6836 76.4413 87.0628 76.442 86.4359V34.8081C76.442 33.9641 76.1071 33.1545 75.5107 32.5572C74.9144 31.9599 74.1054 31.6236 73.2613 31.6222H26.7387C26.321 31.6229 25.9075 31.7058 25.5219 31.8663C25.1363 32.0268 24.786 32.2617 24.4912 32.5575C24.1963 32.8534 23.9626 33.2044 23.8034 33.5906C23.6442 33.9767 23.5627 34.3905 23.5634 34.8081V86.4359C23.5634 89.0766 21.4251 91.2148 18.7951 91.2148H4.76826C4.14138 91.2141 3.52078 91.09 2.94189 90.8494C2.363 90.6089 1.83715 90.2567 1.39438 89.8129C0.9516 89.3691 0.600573 88.8425 0.361326 88.2631C0.122078 87.6836 -0.00069939 87.0628 2.99669e-06 86.4359V14.3773C2.99669e-06 10.8545 2.8492 8 6.36125 8Z"
    fill="#EC5B55" />
  <path fill-rule="evenodd" clip-rule="evenodd"
    d="M38.2156 51.7948V65.982C38.2156 68.6013 40.3539 70.7289 42.9893 70.7289H57.0107C57.6355 70.7303 58.2544 70.6086 58.8322 70.3708C59.41 70.133 59.9352 69.7837 60.378 69.343C60.8208 68.9022 61.1724 68.3785 61.4128 67.8018C61.6532 67.2251 61.7776 66.6067 61.779 65.982V51.7948C61.7776 51.17 61.6532 50.5516 61.4128 49.9749C61.1724 49.3983 60.8208 48.8746 60.378 48.4338C59.9352 47.993 59.41 47.6437 58.8322 47.4059C58.2544 47.1681 57.6355 47.0465 57.0107 47.0479H42.9893C42.364 47.0458 41.7445 47.1669 41.1661 47.4044C40.5878 47.6419 40.0619 47.991 39.6185 48.4319C39.1752 48.8727 38.8231 49.3967 38.5824 49.9737C38.3417 50.5507 38.217 51.1695 38.2156 51.7948Z"
    fill="#EC5B55" />
</svg>
  