<svg width="100" height="101" viewBox="0 0 100 101" fill="none" xmlns="http://www.w3.org/2000/svg">
  <path fill-rule="evenodd" clip-rule="evenodd"
    d="M39.3524 38.2637C39.1655 38.9847 38.8396 39.6615 38.3927 40.2562C37.5608 41.3406 36.4598 42.1863 35.2001 42.7088C34.0673 43.1991 32.8673 43.5163 31.6407 43.6491C31.3885 43.6813 31.1273 43.701 30.8738 43.7204L30.8326 43.7235C30.0557 43.7532 29.3088 44.0319 28.701 44.5188C28.0931 45.006 27.6566 45.6757 27.455 46.4298C27.3628 46.8051 27.2941 47.1857 27.2497 47.5698C27.1791 48.1489 27.1428 48.7417 27.1034 49.383C27.0753 49.843 27.0453 50.3283 27.0003 50.8511C26.7366 52.9811 26.1231 55.0524 25.1853 56.9809C24.9937 57.3862 24.7984 57.7793 24.6062 58.1653C23.5781 60.2341 22.649 62.1028 22.9156 64.6057C23.1243 66.5342 24.1078 67.8264 25.4144 69.1592C26.035 69.7967 26.8578 70.3414 27.7119 70.907C30.1026 72.4896 32.7382 74.2346 31.8698 78.6309C31.1591 82.1932 25.2797 85.9313 17.0158 87.237C17.8174 87.1148 16.0517 84.0885 15.8558 83.7526L15.8439 83.7322C15.6161 83.3738 15.3826 83.0207 15.1498 82.6682C14.4773 81.65 13.8073 80.6372 13.2848 79.5141C11.9041 76.5812 11.2641 73.188 11.8298 69.9742C12.3423 67.0657 14.2567 64.7423 16.0995 62.505C16.4001 62.1403 16.6986 61.7781 16.9889 61.416C19.4539 58.3409 22.0402 54.3118 22.6124 50.3202C22.6609 49.9733 22.704 49.5951 22.7493 49.1973C22.8306 48.4851 22.9187 47.7098 23.0571 46.9373C23.2624 45.6032 23.6787 44.3104 24.2896 43.1079C24.7065 42.3194 25.2556 41.6088 25.9128 41.0072C26.2553 40.6878 26.4812 40.2622 26.5547 39.7984C26.6278 39.335 26.5441 38.86 26.3169 38.4497L13.1432 14.648L32.0651 38.1047C32.2807 38.3765 32.5529 38.5975 32.8629 38.7515C33.1729 38.9056 33.5129 38.9894 33.8586 38.9969C34.2045 39.0044 34.5476 38.9353 34.8639 38.7943C35.1801 38.6537 35.4617 38.4447 35.6886 38.1825C35.9283 37.9018 36.0642 37.5465 36.0733 37.1765C36.0826 36.8068 35.9645 36.4452 35.7389 36.1527C34.8592 35.0233 33.9436 33.8786 33.0323 32.7389C32.6635 32.278 32.2951 31.817 31.9304 31.3592L27.1688 25.4394L17.6117 13.6196L7 1L18.8377 12.5608L29.0107 23.8594L34.0857 29.5223C34.552 30.0498 35.0183 30.5727 35.4842 31.0952C36.7017 32.4602 37.9192 33.8252 39.1368 35.2734L39.413 35.6115L39.4736 36.1359C39.5555 36.8468 39.5146 37.5668 39.3524 38.2637ZM88.016 46.2185L88.036 46.2492C88.0325 43.7254 86.4769 39.5612 83.3284 35.5559L83.2543 35.4577C82.2843 34.2537 81.2274 33.123 80.0921 32.0749C79.8799 31.8686 79.6511 31.6655 79.4186 31.4627C77.9639 30.1883 76.3739 29.0786 74.6773 28.1542L74.5561 28.0932C69.2254 25.1773 62.2884 23.6754 53.7348 25.3666C52.586 23.9657 51.3488 22.6403 50.0307 21.3988C48.0119 19.4662 45.6356 17.9506 43.0365 16.9368C40.4605 15.9896 37.7017 15.6515 34.9745 15.949C37.6033 16.1868 40.164 16.9212 42.5212 18.114C44.7978 19.3394 46.8481 20.9481 48.5825 22.8703C50.3407 24.8326 51.9932 26.8876 53.5329 29.027L53.9192 29.5323C55.4258 31.5033 56.9595 33.5099 58.8702 35.2955C59.9221 36.2896 61.0955 37.1456 62.3624 37.8428C62.699 38.0153 63.0393 38.1775 63.3728 38.3197C63.7059 38.4618 64.019 38.5937 64.3559 38.7156C65.0059 38.969 65.6794 39.179 66.3528 39.3719C69.0469 40.1431 71.8048 40.4203 74.4989 40.5694C74.8736 40.5891 75.2476 40.6075 75.6201 40.6259C76.5823 40.6737 77.5364 40.7209 78.4758 40.7891C79.7627 40.8659 81.0393 41.0675 82.2878 41.3913C84.1631 41.8825 85.8141 43.0047 86.9653 44.571C87.3566 45.0929 87.7078 45.6435 88.016 46.2185ZM80.1302 32.0789C79.9949 31.9533 79.8571 31.8289 79.7199 31.7049C79.6318 31.6252 79.5436 31.5458 79.4568 31.4664C79.524 31.528 79.5912 31.5902 79.6583 31.6527C79.8165 31.7992 79.9743 31.9458 80.1302 32.0789ZM76.763 56.9921C68.0997 53.4608 59.0377 49.7667 60.3868 39.399C63.2793 42.5013 67.8197 43.1519 72.7579 43.8597C77.2377 44.5016 82.0446 45.1904 86.2459 47.7986C96.1595 53.9486 94.7117 65.8967 91.3441 70.2945C91.6479 63.0594 84.3587 60.0884 76.763 56.9921ZM41.8602 51.803C44.1468 51.583 49.0197 50.3889 46.8409 46.5357C46.3722 45.752 45.6928 45.1169 44.8809 44.7032C44.069 44.2897 43.1574 44.1147 42.2509 44.1982C41.3312 44.2976 40.4637 44.6785 39.7668 45.2898C39.0699 45.901 38.5767 46.7126 38.3549 47.6148C37.678 50.1352 38.3952 52.1411 41.8602 51.803ZM41.203 21.3172C39.7686 19.6528 37.5427 18.78 35.3604 18.4622C35.2789 19.0081 35.2273 19.5581 35.2058 20.1097C35.1079 24.6526 36.7142 29.6423 39.8224 33.1099C40.8168 34.2308 42.0159 35.1493 43.3549 35.8162C44.1293 36.1949 46.1837 37.1353 46.9447 36.2896C47.0025 36.2121 47.0391 36.1206 47.0503 36.0243C47.0616 35.9281 47.0472 35.8306 47.0088 35.7418C46.8825 35.3796 46.6391 35.0509 46.3972 34.7246C46.2256 34.4933 46.055 34.2633 45.9278 34.023C45.799 33.7811 45.6612 33.5449 45.5237 33.3093C45.2653 32.8661 45.0075 32.4239 44.8097 31.9427C44.2878 30.683 44.0162 29.3436 43.7453 28.0082C43.6912 27.7414 43.6368 27.4729 43.5806 27.2067C43.1665 25.1466 42.6377 22.9816 41.203 21.3172ZM71.8523 57.5571C69.6269 63.7957 73.216 69.0648 76.7842 74.303C80.7752 80.1622 84.74 85.9826 80.5099 93.0771C88.73 89.6673 92.6329 79.3665 89.2216 71.1936C87.0722 66.0242 81.8915 63.2216 77.0827 60.6206C75.217 59.6116 73.407 58.6325 71.8523 57.5571ZM47.7981 72.4489C46.3084 73.0596 44.9037 73.8611 43.619 74.834C46.5403 73.7696 49.6066 73.1618 52.7113 73.0308C53.2739 72.9974 53.8404 72.9711 54.4117 72.9446C55.3986 72.8989 56.4023 72.8527 57.4258 72.7671C59.1036 72.6527 60.7587 72.3111 62.3456 71.7521C64.0087 71.1677 65.5222 70.2202 66.7772 68.9783C68.0453 67.6961 68.9347 66.086 69.3466 64.3266C69.7091 62.6647 69.6582 60.9388 69.1985 59.3015C68.7385 57.664 67.8838 56.1659 66.71 54.9393C67.2763 56.3824 67.6247 57.9022 67.7438 59.4487C67.8463 60.8884 67.6513 62.3338 67.1713 63.6941C66.7025 64.9835 65.9362 66.1429 64.9353 67.077C63.9012 68.0204 62.704 68.7654 61.4027 69.2758C59.5943 70.0077 57.5492 70.307 55.4192 70.6189C54.4476 70.7611 53.4582 70.9061 52.4654 71.0958C50.8688 71.3895 49.305 71.843 47.7981 72.4489ZM73.622 98.2034L73.4792 98.3187C73.1026 98.6228 72.7201 98.9325 72.3079 99.2103C71.7826 99.5578 71.2323 99.8656 70.6613 100.13C69.4722 100.713 68.1653 101.011 66.8425 101C63.2596 100.932 60.7271 98.2531 59.2455 95.2252C58.8571 94.4318 58.5149 93.6136 58.1727 92.7955C57.6249 91.4861 57.077 90.1767 56.3392 88.967C54.6254 86.156 51.6923 83.8929 48.2575 84.3123C46.8566 84.4882 45.5431 85.1207 44.7653 86.342C42.7178 89.532 45.6578 94.0008 49.4057 93.368C49.7244 93.3193 50.0363 93.233 50.3351 93.1111C50.6329 92.9836 50.9107 92.814 51.1601 92.6071C51.6838 92.1689 52.0782 91.5961 52.3017 90.9496C52.5479 90.2752 52.6026 89.5455 52.4601 88.842C52.3063 88.1064 51.8738 87.4601 51.2544 87.0389C51.9748 87.3776 52.536 87.9842 52.8204 88.7301C53.1151 89.4983 53.191 90.3333 53.0392 91.1424C52.892 91.9849 52.5223 92.7724 51.9682 93.4224C51.6741 93.7565 51.3338 94.0471 50.9582 94.2849C50.5857 94.5199 50.1866 94.7096 49.7694 94.8499C48.9235 95.1402 48.0231 95.234 47.1359 95.124C45.8903 94.9456 44.7156 94.4337 43.735 93.6421C43.5537 93.4983 43.3799 93.3477 43.2115 93.1915C42.5443 92.6133 41.9387 91.9661 41.4046 91.2605C41.1649 90.9955 40.9215 90.7339 40.6671 90.4827C39.4665 89.217 38.0499 88.1779 36.4845 87.4145C35.4051 86.9382 34.2754 86.5864 33.1173 86.3657C32.5345 86.2438 31.9454 86.156 31.356 86.0817C31.2919 86.0751 31.1691 86.0535 31.016 86.027C30.5241 85.941 29.7225 85.8013 29.5813 85.9326C31.4029 84.2482 33.3882 82.7522 35.508 81.4672C37.6845 80.17 40.0215 79.1656 42.4587 78.4803C44.9853 77.7659 47.6285 77.5621 50.2341 77.8815C51.5754 78.0434 52.8892 78.3847 54.1404 78.8962C55.4514 79.4225 56.6614 80.1734 57.7167 81.1156C58.7608 82.1038 59.6049 83.286 60.2018 84.5963C60.7408 85.8235 61.1427 87.1067 61.4005 88.4223C61.5387 89.1305 61.643 89.9083 61.7506 90.7136C62.2415 94.3834 62.8087 98.6178 67.0144 99.3556C67.2816 99.4078 67.5513 99.4462 67.8225 99.4709L68.661 99.4909C69.2375 99.4497 69.8104 99.3672 70.3751 99.244C71.5451 98.9678 72.6854 98.5769 73.7795 98.0772L73.622 98.2034ZM41.6259 91.5074C41.7265 91.623 41.8284 91.7374 41.9315 91.8508C41.8893 91.8036 41.8474 91.7561 41.8052 91.7089C41.7456 91.6417 41.6859 91.5746 41.6259 91.5074Z"
    fill="#E6368C" />
</svg>
  