<svg width="100" height="100" viewBox="0 0 100 100" fill="none" xmlns="http://www.w3.org/2000/svg">
  <path
    d="M91.5483 76.4934C91.4848 76.5418 91.4214 76.5932 91.3548 76.6385C91.2914 76.6869 91.2249 76.7322 91.1584 76.7806C91.0344 76.8683 90.9075 76.9529 90.7775 77.0345C90.7624 77.0436 90.7472 77.0526 90.7321 77.0647C90.6263 77.1312 90.5205 77.1977 90.4117 77.2612C90.2515 77.358 90.0943 77.4486 89.9311 77.5393C88.8247 78.156 87.6609 78.6518 86.4729 79.0901C85.3514 79.5012 84.2148 79.8609 83.0691 80.1813C81.4277 80.6408 79.7651 81.0217 78.0874 81.3542C76.4581 81.6807 74.8227 81.9558 73.1813 82.1946C71.5398 82.4334 69.8924 82.6329 68.2419 82.8052C67.7008 82.8626 67.1597 82.914 66.6186 82.9654C65.5333 83.0652 64.4481 83.1498 63.3629 83.2224C62.8188 83.2586 62.2747 83.2919 61.7336 83.3221C60.5154 83.3916 59.2971 83.443 58.0789 83.4823C57.8582 83.4884 57.6376 83.4974 57.4139 83.5035C57.2113 83.5095 57.0088 83.5156 56.8033 83.5216C57.302 82.905 57.8008 82.2913 58.2573 81.6414C58.3238 81.5598 58.3903 81.4782 58.4537 81.3935C59.4846 80.009 60.47 78.5943 61.4132 77.1524C61.5099 77.1464 61.6066 77.1433 61.7003 77.1373C62.2989 77.104 62.8974 77.0647 63.4959 77.0254C63.9494 76.9952 64.4028 76.962 64.8562 76.9257C68.0272 76.6808 71.1861 76.3302 74.3299 75.8374C75.2459 75.6954 76.1558 75.5382 77.0626 75.3719C79.1847 74.9789 81.2886 74.5074 83.3623 73.9149C83.8188 73.7849 84.2722 73.6489 84.7257 73.5068C84.9524 73.4343 85.1791 73.3617 85.4058 73.2861C85.7474 73.3466 86.0587 73.4887 86.3792 73.6066C86.6603 73.7093 86.9414 73.8182 87.2226 73.93C88.0176 74.2444 88.7975 74.592 89.5532 74.9941C89.8525 75.1513 90.1457 75.3175 90.4359 75.4928C90.8198 75.7256 91.1946 75.9705 91.5453 76.2516C91.6481 76.3332 91.6783 76.3665 91.639 76.4148C91.6209 76.439 91.5906 76.4632 91.5423 76.4995L91.5483 76.4934Z"
    fill="#F1ECE2" />
  <path
    d="M62.1598 91.0972C62.0963 91.1365 62.0268 91.1365 61.9603 91.1123C61.9784 91.1003 61.9935 91.0942 62.0087 91.0882C62.0359 91.0791 62.0601 91.0791 62.0873 91.0791C62.1114 91.0791 62.1386 91.0851 62.1628 91.0972H62.1598Z"
    fill="#5E93FF" />
  <path
    d="M61.8908 91.1127C61.8091 91.149 61.7275 91.152 61.6399 91.1278C61.7215 91.0794 61.8061 91.0855 61.8908 91.1127Z"
    fill="#5E93FF" />
  <path
    d="M61.5703 91.1276C61.4887 91.1639 61.4071 91.1669 61.3194 91.1427C61.4011 91.0914 61.4827 91.0974 61.5703 91.1276Z"
    fill="#5E93FF" />
  <path
    d="M61.2499 91.1427C61.1683 91.182 61.0867 91.182 61.002 91.1548C61.002 91.1548 61.0081 91.1548 61.0111 91.1518C61.0897 91.1125 61.1713 91.1125 61.2499 91.1427Z"
    fill="#5E93FF" />
  <path
    d="M60.7602 91.14C60.8146 91.1279 60.8721 91.1339 60.9295 91.1551C60.8479 91.1944 60.7632 91.1944 60.6786 91.1702C60.7058 91.1551 60.733 91.146 60.7602 91.14Z"
    fill="#5E93FF" />
  <path
    d="M60.4791 91.1456C60.5214 91.1456 60.5637 91.1547 60.6091 91.1668C60.5275 91.203 60.4458 91.2061 60.3612 91.1789C60.4005 91.1547 60.4398 91.1456 60.4791 91.1426V91.1456Z"
    fill="#5E93FF" />
  <path
    d="M60.2282 91.1668C60.2493 91.1698 60.2675 91.1759 60.2856 91.1819C60.207 91.2182 60.1224 91.2212 60.0377 91.197C60.0952 91.1607 60.1556 91.1547 60.2161 91.1668C60.2161 91.1668 60.2191 91.1668 60.2221 91.1668H60.2252H60.2282Z"
    fill="#5E93FF" />
  <path
    d="M59.9652 91.1972C59.8685 91.2395 59.7687 91.2365 59.6689 91.2093C59.7657 91.1639 59.8654 91.167 59.9652 91.1972Z"
    fill="#5E93FF" />
  <path
    d="M59.5964 91.2091C59.5148 91.2515 59.4332 91.2454 59.3485 91.2212C59.4271 91.1759 59.5118 91.1759 59.5964 91.2091Z"
    fill="#5E93FF" />
  <path
    d="M80.805 71.9143C80.8443 71.9204 80.8896 71.9204 80.9319 71.9264C80.9864 71.9325 81.0408 71.9476 81.0831 71.9929C80.9712 71.9839 80.8624 71.9597 80.7657 71.9053C80.7717 71.9053 80.7808 71.9053 80.7868 71.9083C80.7929 71.9083 80.7989 71.9083 80.808 71.9113L80.805 71.9143Z"
    fill="#5E93FF" />
  <path
    d="M34.7664 98.5762C34.7755 98.5943 34.7845 98.6125 34.7906 98.6276L33.1038 98.6336C33.1129 98.6155 33.122 98.5973 33.131 98.5792C33.2671 98.5792 33.4031 98.5792 33.5391 98.5792C33.9472 98.5792 34.3553 98.5792 34.7634 98.5792L34.7664 98.5762Z"
    fill="#3180F4" />
  <path
    d="M85.4149 73.2833C85.1882 73.3589 84.9645 73.4314 84.7347 73.504C84.2813 73.646 83.8279 73.7821 83.3714 73.9121C81.2947 74.5045 79.1938 74.9761 77.0717 75.3691C76.1648 75.5384 75.2519 75.6925 74.339 75.8346C71.1952 76.3273 68.0363 76.678 64.8653 76.9228C64.4119 76.9591 63.9584 76.9924 63.505 77.0226C62.9065 77.0619 62.3079 77.1012 61.7094 77.1345C61.6127 77.1405 61.519 77.1435 61.4222 77.1496C62.0721 76.155 62.7039 75.1484 63.3146 74.1267C64.1972 72.6515 65.0406 71.1552 65.8417 69.6377C67.3713 69.7707 68.8978 69.9249 70.4244 70.1123C70.5362 70.1244 70.6481 70.1486 70.7629 70.1667C71.4461 70.2151 72.1232 70.3178 72.7973 70.4176C73.6649 70.5446 74.5325 70.6836 75.397 70.8287C76.5639 71.0252 77.7307 71.2428 78.8885 71.4937C79.5142 71.6298 80.1369 71.7688 80.7627 71.9049C80.8624 71.9593 80.9682 71.9804 81.0801 71.9925C82.4162 72.3341 83.7493 72.6938 85.0582 73.1261C85.1791 73.1654 85.3181 73.1775 85.4119 73.2803L85.4149 73.2833Z"
    fill="#FDBF41" />
  <path
    d="M40.9664 83.126C41.5044 83.1683 42.0455 83.2106 42.5836 83.2469C42.0425 83.2106 41.5044 83.1683 40.9664 83.126Z"
    fill="#F1ECE2" />
  <path
    d="M23.7087 95.1723C23.6663 95.1723 23.6301 95.1602 23.6029 95.127C23.6029 95.127 23.6089 95.127 23.6119 95.127C23.618 95.127 23.624 95.127 23.6301 95.127C23.6361 95.127 23.6391 95.13 23.6452 95.13C23.6482 95.13 23.6542 95.13 23.6573 95.133C23.6633 95.133 23.6694 95.139 23.6754 95.1421C23.6754 95.1421 23.6815 95.1421 23.6845 95.1451C23.6905 95.1511 23.6966 95.1572 23.7026 95.1632C23.7026 95.1632 23.7026 95.1632 23.7056 95.1632L23.7087 95.1723Z"
    fill="#404A5A" />
  <path
    d="M23.6028 95.1265C23.5605 95.1265 23.5212 95.1174 23.497 95.0781C23.497 95.0781 23.5182 95.0781 23.5273 95.0781H23.5303C23.5575 95.0842 23.5817 95.0963 23.5998 95.1235C23.5998 95.1235 23.5998 95.1235 23.5998 95.1265H23.6028Z"
    fill="#404A5A" />
  <path
    d="M23.4971 95.0779C23.4518 95.0779 23.4095 95.0748 23.3913 95.0265C23.3913 95.0265 23.3913 95.0265 23.3913 95.0234H23.3944C23.4367 95.0234 23.476 95.0325 23.4971 95.0748V95.0779Z"
    fill="#404A5A" />
  <path
    d="M23.3913 95.0208V95.0269C23.3489 95.0269 23.3036 95.0329 23.2885 94.9755V94.9694C23.3338 94.9634 23.3731 94.9725 23.3943 95.0208H23.3913Z"
    fill="#404A5A" />
  <path
    d="M22.9771 94.7578C23.0073 94.779 23.0436 94.7941 23.0769 94.8092C23.1011 94.8213 23.1252 94.8304 23.1494 94.8425C23.1917 94.8636 23.231 94.8908 23.2582 94.9301C23.2673 94.9422 23.2764 94.9603 23.2855 94.9785C23.1434 94.9664 23.0194 94.909 22.9106 94.8183L22.9771 94.7578Z"
    fill="#404A5A" />
  <path
    d="M32.6715 90.2026C32.5536 90.2207 32.4358 90.2389 32.3209 90.257C31.8675 90.3175 31.414 90.3537 30.9576 90.3658C30.8064 90.3689 30.6523 90.3719 30.5011 90.3689C30.3469 90.3689 30.1958 90.3628 30.0416 90.3568C29.9751 90.3537 29.9116 90.3447 29.8451 90.3386C29.7816 90.3326 29.7151 90.3235 29.6486 90.3175C29.564 90.3114 29.5005 90.2751 29.437 90.2207C29.2556 90.0575 29.0833 89.8882 28.914 89.7129C30.1656 89.8943 31.417 90.0575 32.6715 90.2056V90.2026Z"
    fill="#F1ECE2" />
  <path
    d="M52.3626 69.0693C51.4618 69.0693 50.561 69.0814 49.6602 69.0965C48.1608 71.4211 46.5436 73.6641 44.7782 75.7953C44.4064 76.2426 44.0316 76.684 43.6476 77.1193C42.6803 78.2226 41.6707 79.2867 40.6127 80.3024C39.6846 81.1911 38.7264 82.0405 37.7258 82.8386C36.9459 83.4643 36.1388 84.0598 35.3015 84.613C33.7598 85.6347 32.1425 86.5144 30.4014 87.1553C29.5187 87.4787 28.6179 87.7417 27.6869 87.8959C27.6355 87.9049 27.5871 87.9261 27.5357 87.9412C27.5387 87.9563 27.5448 87.9745 27.5478 87.9896C27.5508 87.9987 27.5539 88.0077 27.5599 88.0168C27.6264 88.1196 27.6929 88.2193 27.7624 88.316C27.9015 88.5156 28.0466 88.709 28.1947 88.8964C28.4184 89.1776 28.6572 89.4496 28.9081 89.7096C30.1595 89.891 31.411 90.0542 32.6655 90.2023C33.001 90.1509 33.3336 90.0844 33.6631 90.0059C34.4278 89.8245 35.1715 89.5857 35.9 89.3045C36.2627 89.1625 36.6225 89.0113 36.9761 88.8481C37.3298 88.6848 37.6805 88.5125 38.0281 88.3281C38.1792 88.2495 38.3274 88.1679 38.4785 88.0863C39.5184 87.515 40.5159 86.8741 41.4712 86.1849C42.4294 85.4927 43.3484 84.7491 44.2401 83.9691C44.3671 83.8573 44.4941 83.7454 44.621 83.6306C44.7147 83.5459 44.8054 83.4613 44.9021 83.3736C45.4735 82.8507 46.0357 82.3126 46.5829 81.7624C46.7945 81.5478 47.003 81.3332 47.2116 81.1125C47.8978 80.3931 48.5659 79.6585 49.2158 78.9058C49.6058 78.4554 49.9866 77.9959 50.3615 77.5334C50.4068 77.479 50.4522 77.4216 50.4975 77.3641C50.7545 77.0437 51.0084 76.7203 51.2623 76.3938C52.0573 75.366 52.8221 74.3171 53.5597 73.247C53.9587 72.6666 54.3487 72.0832 54.7326 71.4937C54.9472 71.1612 55.1588 70.8287 55.3674 70.4961C55.6546 70.0397 55.9357 69.5772 56.2138 69.1147C54.9291 69.0844 53.6474 69.0693 52.3626 69.0693Z"
    fill="#F1ECE2" />
  <path
    d="M18.0709 92.657C18.0286 92.666 17.9954 92.6539 17.9803 92.6086C18.0256 92.5995 18.0588 92.6086 18.0709 92.657Z"
    fill="#C18B00" />
  <path
    d="M44.7268 69.2568C44.0829 69.287 43.4391 69.3233 42.7982 69.3626C42.0939 70.3602 41.3654 71.3426 40.6036 72.3008C39.8569 73.244 39.0922 74.169 38.2881 75.0668C37.8316 75.5746 37.3721 76.0795 36.9006 76.5752C36.5681 76.9259 36.2295 77.2735 35.8819 77.6121C34.5004 78.9633 33.0524 80.239 31.4956 81.3907C31.2357 81.5811 30.9757 81.7685 30.7097 81.9529C29.8361 82.5605 28.9323 83.1228 27.9922 83.6276C27.312 83.9964 26.6107 84.3229 25.9003 84.6221C25.9063 84.6554 25.9003 84.6917 25.9154 84.7249C26.0152 85 26.121 85.269 26.2358 85.5381C26.3477 85.8071 26.4686 86.0701 26.5955 86.3301C26.8495 86.85 27.1336 87.3578 27.442 87.8536L27.448 87.8596C27.4692 87.8899 27.5054 87.9171 27.5326 87.9443C27.584 87.9292 27.6324 87.908 27.6838 87.8989C28.6118 87.7448 29.5126 87.4818 30.3983 87.1583C32.1395 86.5205 33.7568 85.6378 35.2984 84.6161C36.1358 84.0629 36.9429 83.4674 37.7228 82.8417C38.7234 82.0406 39.6816 81.1912 40.6096 80.3054C41.6707 79.2898 42.6773 78.2257 43.6446 77.1224C44.0285 76.6871 44.4034 76.2457 44.7752 75.7983C46.5406 73.6672 48.1578 71.4242 49.6572 69.0996C48.0127 69.1298 46.3652 69.1782 44.7238 69.2598L44.7268 69.2568Z"
    fill="#FDBF41" />
  <path
    d="M77.238 44.4415C77.238 44.4415 77.2168 44.4385 77.2077 44.4385C77.2168 44.4385 77.2259 44.4385 77.238 44.4415Z"
    fill="#E7AA24" />
  <path
    d="M77.0596 44.5113C77.111 44.5113 77.1684 44.5113 77.1352 44.4297C77.1594 44.4297 77.1835 44.4357 77.2107 44.4388C77.1956 44.4388 77.1835 44.4418 77.1745 44.4478C77.1533 44.4629 77.1533 44.4962 77.1594 44.5355C77.1261 44.5355 77.0929 44.5325 77.0596 44.5294C77.0415 44.5294 77.0203 44.5264 77.0022 44.5234C76.9629 44.5204 76.9206 44.5143 76.8813 44.5113C76.7906 44.4992 76.6969 44.4811 76.6092 44.4599C76.7634 44.4508 76.9115 44.5053 77.0626 44.5143L77.0596 44.5113Z"
    fill="#E7AA24" />
  <path
    d="M30.1595 75.6719C30.226 75.684 30.2895 75.6931 30.353 75.7052C29.0924 76.9234 27.7684 78.066 26.3567 79.112C25.8428 79.4928 25.3289 79.8737 24.7727 80.1972C24.6699 79.7528 24.6246 79.2994 24.5732 78.8459C24.3979 77.401 24.3313 75.95 24.3283 74.499C24.679 74.5837 25.0296 74.6653 25.3833 74.7469C26.4141 74.9827 27.4479 75.1913 28.4848 75.3817C29.044 75.4845 29.6033 75.5812 30.1626 75.6749L30.1595 75.6719Z"
    fill="#F1ECE2" />
  <path
    d="M35.9302 69.9486C35.7821 69.9667 35.6309 69.9788 35.4798 69.9939C33.9925 71.8862 32.4055 73.6909 30.6825 75.3807C30.5737 75.4895 30.4618 75.5953 30.353 75.7011C30.4044 75.7102 30.4558 75.7193 30.5041 75.7283C30.4527 75.7193 30.4044 75.7102 30.353 75.7041C29.0925 76.9224 27.7684 78.065 26.3568 79.1109C25.8429 79.4918 25.329 79.8727 24.7728 80.1961C24.7788 80.2566 24.7818 80.3201 24.7879 80.3805C24.7879 80.3987 24.7879 80.4138 24.7939 80.4319C24.806 80.5015 24.8211 80.571 24.8332 80.6405C24.8423 80.6979 24.8514 80.7524 24.8635 80.8098C24.8907 80.9488 24.9179 81.0909 24.9451 81.233C25.1053 82.031 25.2957 82.82 25.5345 83.5969C25.6434 83.9445 25.731 84.3012 25.9063 84.6277C26.6167 84.3284 27.318 84.002 27.9982 83.6332C28.9383 83.1253 29.8421 82.5631 30.7157 81.9585C30.9817 81.7771 31.2417 81.5897 31.5017 81.3962C33.0585 80.2475 34.5064 78.9689 35.8879 77.6176C36.2355 77.2791 36.5711 76.9314 36.9066 76.5808C37.3782 76.085 37.8377 75.5802 38.2941 75.0724C39.0952 74.1746 39.863 73.2496 40.6096 72.3064C41.3684 71.3451 42.0999 70.3657 42.8043 69.3682C40.5129 69.5072 38.2246 69.7007 35.9393 69.9546L35.9302 69.9486Z"
    fill="#FF1100" />
  <path
    d="M30.5041 75.7283C30.4528 75.7192 30.4044 75.7101 30.353 75.7041C30.4044 75.7132 30.4558 75.7222 30.5041 75.7283Z"
    fill="#F1ECE2" />
  <path d="M30.353 75.7012C30.2895 75.6922 30.223 75.6801 30.1595 75.668L30.353 75.6982V75.7012Z"
    fill="#FF1100" />
  <path
    d="M28.4819 75.3779C29.0411 75.4807 29.6003 75.5774 30.1595 75.6712C29.6003 75.5774 29.0381 75.4807 28.4819 75.3779Z"
    fill="#FF1100" />
  <path
    d="M34.4974 70.1361C34.8208 70.0666 35.1503 70.0303 35.4798 69.9971C33.9926 71.8894 32.4055 73.6941 30.6825 75.3839C30.5737 75.4927 30.4618 75.5985 30.353 75.7043L30.1595 75.6741C29.6003 75.5803 29.0411 75.4836 28.4819 75.3808C27.445 75.1904 26.4082 74.9818 25.3804 74.746C25.0297 74.6644 24.676 74.5828 24.3254 74.4981C24.3254 73.951 24.3314 73.4008 24.3466 72.8507C24.3556 72.5242 24.3707 72.2008 24.3889 71.8773C25.5829 71.5932 26.786 71.3423 27.9922 71.1125C30.0537 70.7226 32.1274 70.4052 34.2072 70.1482C34.2404 70.1452 34.2737 70.1391 34.3069 70.1361C34.3462 70.1301 34.3855 70.1271 34.4248 70.1301C34.449 70.1301 34.4732 70.1361 34.4974 70.1422V70.1361Z"
    fill="#FDBF41" />
  <path
    d="M71.2708 43.7168C72.4739 43.8649 73.68 44.01 74.8831 44.1581C74.8771 44.1702 74.868 44.1823 74.8559 44.1944C74.1093 44.1037 73.3596 44.0161 72.6129 43.9193C72.3953 43.8921 72.1776 43.874 71.96 43.8498C71.7424 43.8256 71.5247 43.8014 71.3101 43.7591C71.298 43.744 71.2859 43.7319 71.2708 43.7198V43.7168Z"
    fill="#007FFF" />
  <path
    d="M65.3762 47.4563C65.4215 47.287 65.4638 47.1117 65.5092 46.9424C65.4668 47.1147 65.4215 47.287 65.3762 47.4563Z"
    fill="#F1ECE2" />
  <path
    d="M99.958 71.6361C99.958 69.9795 99.958 68.326 99.958 66.6695C99.8522 66.207 99.7071 65.7566 99.4501 65.3515C99.036 64.6986 98.5433 64.1151 97.9266 63.6375C97.2827 63.1387 96.6237 62.6702 95.9134 62.2712C94.937 61.724 93.9213 61.2615 92.9026 60.8051C92.7212 60.7235 92.5338 60.6842 92.3524 60.6116C90.049 59.7108 87.679 59.0337 85.2788 58.4502C83.7432 58.0754 82.1955 57.755 80.6417 57.4648C78.8975 57.1383 77.1443 56.8572 75.388 56.6154C74.1758 56.4491 72.9636 56.298 71.7484 56.1619C71.2073 56.1015 70.6662 56.044 70.1251 55.9896C68.5955 55.8415 67.0629 55.7024 65.5303 55.5936C64.6265 55.5271 63.7196 55.4697 62.8158 55.4183C62.048 55.376 61.2771 55.3367 60.5063 55.3004C59.2941 55.246 58.085 55.2037 56.8728 55.1765C56.7851 55.1765 56.6974 55.1704 56.6098 55.1704C54.6963 55.1281 52.7798 55.116 50.8663 55.1341C50.8361 55.1341 50.8058 55.1341 50.7726 55.1341C48.8017 55.1523 46.8307 55.1976 44.8628 55.2792C44.745 55.2823 44.6271 55.2913 44.5092 55.2944C42.1785 55.3941 39.8539 55.5392 37.5293 55.7357C34.1165 56.0229 30.7157 56.4128 27.3332 56.9448C27.2516 56.9569 27.173 56.9721 27.0914 56.9841C26.9614 57.4436 26.8435 57.9091 26.6802 58.3596C26.5654 58.819 26.4505 59.2785 26.3326 59.735C26.0213 60.9532 25.7401 62.1775 25.4953 63.4108C25.6676 63.3806 25.8399 63.3534 26.0122 63.3231C26.2389 63.2838 26.4656 63.2476 26.6893 63.2083C27.0248 63.1539 27.3604 63.0994 27.6959 63.045C28.9081 62.8576 30.1263 62.6883 31.3415 62.5342C32.5597 62.38 33.7779 62.244 34.9992 62.1231C35.8123 62.0414 36.6285 61.9659 37.4447 61.8963C38.678 61.7936 39.9144 61.7059 41.1507 61.6273C42.3146 61.5548 43.4784 61.4973 44.6422 61.4489C44.9414 61.4369 45.2407 61.4217 45.54 61.4097C45.9843 61.3915 46.4317 61.3794 46.8761 61.3643C47.1633 61.3552 47.4504 61.3492 47.7406 61.3431C48.7896 61.3159 49.8385 61.3008 50.8875 61.2918C51.2835 61.2918 51.6764 61.2857 52.0724 61.2857C52.7496 61.2857 53.4267 61.2857 54.1008 61.2918C54.3456 61.2918 54.5905 61.2948 54.8353 61.3008C55.0983 61.3039 55.3613 61.3069 55.6243 61.3099C56.3407 61.322 57.0541 61.3401 57.7706 61.3613C58.487 61.3824 59.2004 61.4097 59.9168 61.4369C60.0347 61.4399 60.1526 61.449 60.2705 61.452C61.0383 61.4852 61.8061 61.5245 62.5709 61.5638C63.1604 61.5971 63.7498 61.6333 64.3393 61.6696C65.222 61.7271 66.1077 61.7905 66.9904 61.8631C67.8035 61.9296 68.6167 62.0052 69.4329 62.0868C69.4601 62.0868 69.4903 62.0928 69.5175 62.0958C70.1009 62.1533 70.6843 62.2107 71.2678 62.2712C72.2018 62.3649 73.1359 62.4767 74.07 62.6007C75.001 62.7246 75.9321 62.8576 76.8631 62.9967C77.2501 63.0541 77.637 63.1146 78.0209 63.175C79.1787 63.3624 80.3334 63.568 81.4821 63.7947C82.1592 63.9277 82.8333 64.0668 83.5074 64.2119C84.1815 64.357 84.8526 64.5142 85.5237 64.6774C86.5424 64.9283 87.5551 65.1973 88.5557 65.4905C89.8918 65.8835 91.2158 66.3249 92.5126 66.8418C92.8391 66.9687 93.1595 67.1048 93.483 67.2408C93.9727 67.4524 94.4533 67.6852 94.9309 67.9209C95.0488 67.9784 95.1667 68.0358 95.2846 68.0963C95.3753 68.1416 95.469 68.187 95.5597 68.2323C95.6806 68.2928 95.8015 68.3532 95.9194 68.4197C96.0706 68.5013 96.2187 68.589 96.3577 68.6857C96.8958 69.0576 97.449 69.4082 97.9478 69.8314C98.0626 69.9312 98.1745 70.0309 98.2833 70.1367C98.4133 70.2455 98.5372 70.3634 98.6551 70.4813C98.8516 70.6778 99.033 70.8894 99.1932 71.1101C99.2718 71.2189 99.3443 71.3308 99.4139 71.4456C99.4743 71.5454 99.5287 71.6451 99.5801 71.7479C99.6315 71.8507 99.6799 71.9565 99.7222 72.0683C99.7675 72.1772 99.8068 72.289 99.8431 72.4009C99.8673 72.4795 99.8945 72.5611 99.9187 72.6397C99.9187 72.6397 99.9187 72.6457 99.9217 72.6487V72.6397C99.9852 72.3041 99.9459 71.9656 99.9489 71.627L99.958 71.6361Z"
    fill="#F1ECE2" />
  <path
    d="M99.9791 66.0127C99.9822 64.7582 99.9822 63.5067 99.9791 62.2522C99.9791 61.6749 99.9731 61.0945 99.9701 60.5171C99.8703 60.1906 99.8008 59.8551 99.6527 59.5437C99.2748 58.7608 98.7095 58.132 98.0566 57.5698C97.3432 56.9531 96.5542 56.4423 95.7259 55.9918C94.5259 55.3329 93.2804 54.7706 91.9957 54.296C90.5084 53.7458 89 53.2592 87.4704 52.842C86.3006 52.5246 85.1247 52.2314 83.9457 51.9623C82.6006 51.657 81.2493 51.388 79.8921 51.1492C78.4834 50.9043 77.0687 50.6685 75.6509 50.4721C74.9799 50.3783 74.3058 50.2907 73.6317 50.206C72.1263 50.0126 70.6178 49.8433 69.1064 49.7103C68.8253 49.6831 68.5472 49.6438 68.266 49.6226C67.1234 49.535 65.9807 49.4503 64.8411 49.3687C64.6779 49.3566 64.5146 49.3445 64.3514 49.3324C63.5896 49.278 62.8279 49.2236 62.0661 49.1843C61.0746 49.1359 60.0831 49.0997 59.0916 49.0634C59.0825 49.0634 59.0734 49.0634 59.0644 49.0634C58.0275 49.0271 56.9937 48.9878 55.9568 48.9697C55.0439 48.9546 54.131 48.9455 53.2151 48.9425C52.813 48.9425 52.411 48.9395 52.0059 48.9395C50.4038 48.9395 48.8047 48.9636 47.2056 49.009C47.1814 49.009 47.1602 49.009 47.1361 49.009C45.2588 49.0634 43.3786 49.139 41.5044 49.2599C40.0625 49.3506 38.6206 49.4322 37.1817 49.5531C36.5983 49.6015 36.0179 49.674 35.4375 49.7314C33.4091 49.934 31.3868 50.1698 29.3706 50.4539C29.3464 50.4569 29.3252 50.46 29.301 50.463C28.4939 52.5518 27.7684 54.6678 27.1306 56.8171C27.1155 56.8715 27.1004 56.9229 27.0853 56.9773C27.1638 56.9652 27.2454 56.9501 27.3271 56.938C30.7097 56.406 34.1104 56.013 37.5233 55.7289C39.8479 55.5354 42.1725 55.3873 44.5031 55.2875C44.621 55.2815 44.7389 55.2754 44.8568 55.2724C46.8247 55.1908 48.7956 55.1454 50.7665 55.1273C50.7968 55.1273 50.83 55.1273 50.8603 55.1273C52.7768 55.1122 54.6903 55.1243 56.6037 55.1636C56.6914 55.1636 56.7791 55.1696 56.8667 55.1696C58.0789 55.1968 59.2881 55.2391 60.5002 55.2936C61.2711 55.3298 62.0389 55.3691 62.8097 55.4114C63.7136 55.4628 64.6204 55.5203 65.5243 55.5868C67.0569 55.6986 68.5895 55.8347 70.1191 55.9828C70.6602 56.0372 71.2013 56.0946 71.7424 56.1551C72.9576 56.2911 74.1697 56.4423 75.3819 56.6085C77.1382 56.8503 78.8915 57.1315 80.6357 57.4579C82.1894 57.7481 83.7372 58.0686 85.2728 58.4434C87.673 59.0268 90.0429 59.704 92.3464 60.6048C92.5277 60.6773 92.7151 60.7166 92.8965 60.7982C93.9152 61.2577 94.9309 61.7172 95.9073 62.2643C96.6177 62.6634 97.2767 63.1319 97.9206 63.6307C98.5372 64.1083 99.0299 64.6917 99.4441 65.3447C99.701 65.7497 99.8431 66.2001 99.9519 66.6626C99.9943 66.445 99.9701 66.2243 99.9701 66.0067L99.9791 66.0127Z"
    fill="#FDBF41" />
  <path
    d="M64.4391 18.6238C65.2734 19.9267 65.878 21.3354 66.3344 22.8105C66.4765 23.267 66.6034 23.7265 66.7183 24.189C66.9088 24.9598 67.0569 25.7427 67.1748 26.5287C67.208 26.7584 67.2413 26.9882 67.2715 27.2209C67.3289 27.6834 67.3803 28.1459 67.4226 28.6084C67.4408 28.8412 67.4589 29.0709 67.4771 29.3037C67.5617 30.5673 67.598 31.8308 67.5647 33.0974C67.5284 34.4214 67.4499 35.7454 67.3168 37.0664C67.1838 38.3783 67.0025 39.6842 66.7848 40.9811C66.6548 41.761 66.5097 42.5378 66.3525 43.3087C65.1011 43.2089 63.8496 43.1243 62.5951 43.0638C61.9935 43.0366 61.389 43.0034 60.7844 42.9731C61.1925 41.2199 61.5371 39.4545 61.8061 37.671C62.1024 35.697 62.314 33.7171 62.3926 31.725C62.456 30.0322 62.447 28.3364 62.3109 26.6436C62.1961 25.2319 62.0056 23.8353 61.7033 22.4508C61.3618 20.894 60.8811 19.3826 60.1919 17.9407C59.9198 17.3693 59.5994 16.8222 59.279 16.2781C59.542 16.1934 59.8171 16.1844 60.0861 16.1572C60.2282 16.1421 60.3703 16.13 60.5093 16.1209C60.6302 16.1149 60.7511 16.1088 60.872 16.1058C61.0685 16.1028 61.265 16.1028 61.4615 16.1058C61.5975 16.1088 61.7366 16.1149 61.8726 16.1209C61.9784 16.1269 62.0842 16.133 62.19 16.1421C62.2082 16.1421 62.2263 16.1451 62.2414 16.1481C62.2747 16.1541 62.3049 16.1632 62.3351 16.1753C62.3654 16.1874 62.3926 16.2025 62.4198 16.2207C62.4591 16.2448 62.4984 16.2781 62.5346 16.3113C62.6283 16.396 62.719 16.4836 62.8067 16.5713C62.9851 16.7466 63.1574 16.931 63.3206 17.1184C63.7347 17.587 64.1065 18.0858 64.4481 18.6178L64.4391 18.6238Z"
    fill="#F1ECE2" />
  <path
    d="M61.6943 22.4503C61.9966 23.8317 62.187 25.2313 62.3019 26.643C62.4409 28.3358 62.45 30.0317 62.3835 31.7245C62.3079 33.7166 62.0963 35.6966 61.7971 37.6706C61.528 39.4541 61.1834 41.2225 60.7753 42.9727C60.3189 42.9515 59.8594 42.9274 59.4029 42.9092C58.357 42.8699 57.3141 42.8457 56.2682 42.8246C55.8782 42.8155 55.4883 42.8095 55.1014 42.8034C55.4822 41.3675 55.8178 39.9196 56.105 38.4626C56.3226 37.3713 56.51 36.274 56.6763 35.1737C56.7851 34.4361 56.8818 33.6985 56.9665 32.9579C57.0541 32.184 57.1237 31.4071 57.172 30.6272C57.2234 29.7959 57.2567 28.9616 57.2748 28.1303C57.296 27.0148 57.2597 25.9024 57.1781 24.79C57.1237 24.0554 57.0541 23.3239 56.9604 22.5923C56.8335 21.5918 56.6521 20.6033 56.4133 19.6239C56.2229 18.8409 56.0052 18.061 55.715 17.3053C55.9145 17.1783 56.1443 17.1149 56.3649 17.0333C56.8123 16.867 57.2627 16.7219 57.7222 16.5949C58.1817 16.471 58.6442 16.3652 59.1158 16.2866C59.149 16.2806 59.1792 16.2715 59.2125 16.2715C59.2337 16.2715 59.2518 16.2715 59.2699 16.2775C59.5903 16.8216 59.9108 17.3658 60.1828 17.9401C60.8721 19.382 61.3527 20.8935 61.6943 22.4503Z"
    fill="#FDBF41" />
  <path
    d="M74.8348 19.8866C74.8348 19.8866 74.8227 19.8775 74.8227 19.8715C74.8227 19.8684 74.8227 19.8654 74.8227 19.8594L74.8378 19.8684L74.8317 19.8836L74.8348 19.8866Z"
    fill="#3180F4" />
  <path
    d="M99.9519 78.607C99.955 78.5284 99.961 78.4499 99.961 78.3713C99.961 77.0775 99.964 75.7806 99.964 74.4868C99.964 73.9276 99.955 73.3684 99.9519 72.8091C99.9519 72.7759 99.9671 72.7396 99.964 72.7064C99.955 72.6852 99.9429 72.6701 99.9338 72.652C99.9338 72.652 99.9338 72.655 99.9338 72.658C99.9338 72.655 99.9338 72.652 99.9308 72.6489C99.9066 72.5673 99.8794 72.4887 99.8552 72.4071C99.8189 72.2922 99.7766 72.1804 99.7343 72.0746C99.692 71.9658 99.6436 71.86 99.5922 71.7542C99.5408 71.6514 99.4834 71.5486 99.426 71.4519C99.3564 71.337 99.2839 71.2252 99.2053 71.1163C99.0451 70.8926 98.8667 70.6841 98.6672 70.4876C98.5493 70.3697 98.4254 70.2548 98.2954 70.143C98.1866 70.0341 98.0747 69.9344 97.9599 69.8376C97.4611 69.4144 96.9079 69.0638 96.3698 68.692C96.2277 68.5952 96.0796 68.5076 95.9315 68.426C95.8136 68.3625 95.6927 68.299 95.5718 68.2385C95.4811 68.1932 95.3874 68.1479 95.2967 68.1025C95.1788 68.0421 95.0609 67.9846 94.943 67.9272C94.4654 67.6914 93.9848 67.4586 93.4951 67.247C93.1716 67.111 92.8512 66.975 92.5247 66.848C91.2249 66.3341 89.9039 65.8898 88.5677 65.4968C87.5641 65.2005 86.5515 64.9315 85.5358 64.6836C84.8647 64.5204 84.1936 64.3632 83.5195 64.2181C82.8454 64.073 82.1713 63.934 81.4942 63.8009C80.3425 63.5742 79.1877 63.3657 78.033 63.1813C77.6461 63.1208 77.2621 63.0603 76.8752 63.0029C75.9442 62.8638 75.0161 62.7308 74.0821 62.6069C73.151 62.483 72.217 62.3711 71.2799 62.2774C70.6964 62.22 70.113 62.1595 69.5296 62.1021C69.5024 62.1021 69.4722 62.096 69.445 62.093C68.6318 62.0114 67.8187 61.9358 67.0025 61.8693C66.1198 61.7968 65.2341 61.7363 64.3514 61.6759C63.7619 61.6366 63.1725 61.6003 62.583 61.5701C61.8152 61.5277 61.0474 61.4884 60.2826 61.4582C60.1647 61.4522 60.0468 61.4461 59.9289 61.4431C59.2125 61.4129 58.4991 61.3887 57.7827 61.3675C57.0662 61.3464 56.3528 61.3282 55.6364 61.3161C55.3734 61.3131 55.1104 61.3101 54.8474 61.3071C54.6026 61.304 54.3577 61.301 54.1129 61.298C53.4358 61.2919 52.7586 61.2889 52.0845 61.292C51.6885 61.292 51.2925 61.295 50.8996 61.298C49.8506 61.3071 48.8017 61.3222 47.7527 61.3494C47.4656 61.3554 47.1784 61.3645 46.8882 61.3705C46.4438 61.3826 45.9964 61.3977 45.5521 61.4159C45.2528 61.428 44.9535 61.4431 44.6543 61.4552C43.4905 61.5036 42.3266 61.564 41.1628 61.6335C39.9265 61.7121 38.6901 61.7968 37.4568 61.9026C36.6406 61.9721 35.8244 62.0477 35.0113 62.1293C33.79 62.2502 32.5718 62.3862 31.3536 62.5404C30.1353 62.6946 28.9202 62.8638 27.708 63.0513C27.3725 63.1027 27.0369 63.1571 26.7014 63.2145C26.4747 63.2508 26.251 63.2901 26.0243 63.3294C25.8519 63.3596 25.6797 63.3868 25.5074 63.417C25.7522 62.1837 26.0333 60.9594 26.3447 59.7412C26.4626 59.2817 26.5774 58.8253 26.6923 58.3658C26.8555 57.9154 26.9734 57.4499 27.1034 56.9904C27.1185 56.936 27.1337 56.8846 27.1488 56.8302C27.7866 54.6809 28.5121 52.5619 29.3192 50.4761C29.8301 49.152 30.3742 47.8401 30.9515 46.5403C31.3385 45.6697 31.7405 44.8021 32.1546 43.9466C33.524 41.1142 35.0445 38.3603 36.7313 35.6972C38.3062 33.2003 40.0202 30.8061 41.8974 28.5269C41.9367 28.4815 41.9669 28.4271 42.0032 28.3788C42.5685 27.7319 43.1247 27.0789 43.7021 26.4411C45.5823 24.3583 47.6076 22.4297 49.8506 20.7399C50.4038 20.3228 50.9751 19.9298 51.5404 19.5277C51.5918 19.4915 51.6553 19.4854 51.7157 19.4824C51.7429 19.4008 51.8185 19.3645 51.882 19.3252C53.0398 18.5846 54.2429 17.9256 55.5095 17.3936C55.5548 17.3755 55.5971 17.3513 55.6455 17.3362C55.6576 17.3331 55.6727 17.3301 55.6878 17.3271C55.7029 17.3271 55.718 17.321 55.7332 17.321C55.9327 17.1941 56.1624 17.1306 56.3831 17.049C56.8305 16.8827 57.2809 16.7376 57.7403 16.6107C58.1998 16.4867 58.6623 16.3809 59.1339 16.3023C59.1671 16.2963 59.1974 16.2872 59.2306 16.2872C59.2518 16.2872 59.2699 16.2872 59.2881 16.2933C59.5511 16.2086 59.8261 16.1996 60.0952 16.1723C60.2373 16.1572 60.3793 16.1451 60.5184 16.1361C60.6393 16.13 60.7602 16.124 60.8811 16.121C61.0776 16.1179 61.2741 16.1179 61.4706 16.121C61.6066 16.124 61.7457 16.13 61.8817 16.1361C61.9875 16.1421 62.0933 16.1482 62.1991 16.1572C62.2172 16.1572 62.2354 16.1603 62.2505 16.1633C62.2837 16.1693 62.314 16.1784 62.3442 16.1905C62.3744 16.2026 62.4016 16.2177 62.4288 16.2358C62.4681 16.26 62.5074 16.2933 62.5437 16.3265C62.6374 16.4112 62.7281 16.4988 62.8158 16.5865C62.9941 16.7618 63.1664 16.9462 63.3297 17.1336C63.7438 17.6022 64.1156 18.1009 64.4572 18.633C65.2915 19.9358 65.8961 21.3445 66.3526 22.8197C66.4946 23.2761 66.6216 23.7356 66.7365 24.1981C66.9269 24.9689 67.075 25.7519 67.1929 26.5378C67.2262 26.7676 67.2594 26.9973 67.2896 27.2301C67.3471 27.6926 67.3985 28.1551 67.4408 28.6176C67.4589 28.8503 67.4771 29.0801 67.4952 29.3128C67.5798 30.5764 67.6161 31.84 67.5829 33.1066C67.5466 34.4306 67.468 35.7546 67.335 37.0756C67.202 38.3875 67.0206 39.6934 66.803 40.9902C66.673 41.7701 66.5279 42.547 66.3707 43.3179C66.5732 43.333 66.7758 43.3481 66.9783 43.3662C68.4323 43.4871 69.8833 43.6322 71.3343 43.7653C71.3222 43.7501 71.3101 43.738 71.295 43.726C72.4981 43.8741 73.7042 44.0192 74.9073 44.1673C74.9013 44.1794 74.8922 44.1915 74.8801 44.2036C74.9527 44.2126 75.0252 44.2247 75.0978 44.2338C75.3396 43.0428 75.5572 41.8518 75.7416 40.6517C75.9049 39.5755 76.05 38.4964 76.1618 37.4142C76.2676 36.4015 76.3613 35.3888 76.4097 34.3701C76.4339 33.8804 76.4611 33.3877 76.4913 32.898C76.4943 32.8345 76.4611 32.7499 76.5608 32.7226C76.5608 31.8097 76.5548 30.8938 76.5518 29.9809C76.5034 29.9597 76.5004 29.9174 76.4943 29.8721C76.4822 29.6877 76.4611 29.5063 76.455 29.3219C76.4188 27.9949 76.2978 26.6769 76.1195 25.3649C75.923 23.9109 75.6328 22.4781 75.2308 21.0664C75.131 20.7127 75.0464 20.356 74.8892 20.0205L74.8559 19.8996C74.8559 19.8996 74.8438 19.8905 74.8438 19.8844C74.8438 19.8814 74.8438 19.8784 74.8438 19.8724C74.8348 19.83 74.8287 19.7877 74.8136 19.7454C74.2302 18.0616 73.4684 16.4656 72.4195 15.0146C71.4098 13.615 70.1916 12.4451 68.6892 11.5745C68.127 11.2481 67.5164 11.0183 66.939 10.7251C66.8876 10.6979 66.8211 10.7039 66.7606 10.6919C66.7093 10.6253 66.6276 10.6072 66.5581 10.574C65.1948 9.96938 63.8345 9.3648 62.4681 8.76627C62.2928 8.68768 62.1326 8.57281 61.9361 8.54863C61.9029 8.53653 61.8696 8.52747 61.8364 8.51537C61.6036 8.4398 61.3648 8.38539 61.1411 8.27959C61.1199 8.27354 61.1018 8.2675 61.0806 8.25843C61.0716 8.25541 61.0595 8.25238 61.0504 8.24936C61.0504 8.24936 61.0474 8.24936 61.0444 8.24936C61.0202 8.26447 61.0051 8.25238 60.9899 8.23122C60.5516 8.11938 60.1133 8.03473 59.6689 7.97428C59.3485 7.92893 59.0281 7.89568 58.7046 7.87754C58.5958 7.8715 58.49 7.86848 58.3812 7.86545C58.0578 7.85638 57.7373 7.85941 57.4169 7.87452C56.9907 7.89266 56.5675 7.93196 56.1443 7.98939C55.4067 8.09217 54.6751 8.24634 53.9496 8.44585C53.8469 8.47608 53.7411 8.50328 53.6383 8.53653C52.275 8.9416 50.9751 9.48874 49.7206 10.1356C49.3035 10.3503 48.8893 10.577 48.4782 10.8158C48.1034 11.0304 47.7346 11.2511 47.3688 11.4838C47.2479 11.5594 47.127 11.638 47.0061 11.7166C46.8852 11.7952 46.7642 11.8738 46.6464 11.9554C46.4075 12.1156 46.1718 12.2789 45.939 12.4481C45.8241 12.5328 45.7062 12.6174 45.5914 12.7021C45.5914 12.7111 45.5914 12.7172 45.5914 12.7263C45.5914 12.7323 45.5853 12.7383 45.5823 12.7444C45.5732 12.7535 45.5611 12.7565 45.543 12.7565H45.54C45.54 12.7565 45.54 12.7686 45.54 12.7716C45.54 12.7837 45.5339 12.7897 45.5279 12.7928C45.5218 12.7958 45.5158 12.7958 45.5037 12.7928C45.5007 12.7928 45.4946 12.7928 45.4916 12.7867C44.9777 13.1464 44.4789 13.5213 43.9923 13.9112C43.7746 14.0835 43.56 14.2619 43.3484 14.4402C43.3151 14.4674 43.2819 14.4977 43.2486 14.5249C43.031 14.7093 42.8133 14.8967 42.5987 15.0871C42.5987 15.0932 42.5987 15.0962 42.5987 15.1022C42.5987 15.1174 42.5927 15.1264 42.5836 15.1355C42.5836 15.1355 42.5775 15.1385 42.5745 15.1415C42.5685 15.1446 42.5594 15.1476 42.5503 15.1476C42.5443 15.1597 42.5352 15.1718 42.5262 15.1808C42.5141 15.1929 42.505 15.205 42.4899 15.2141C42.4717 15.2262 42.4506 15.2383 42.4264 15.2413C42.4264 15.2685 42.4204 15.2836 42.4083 15.2897C42.3901 15.3018 42.3569 15.2927 42.3327 15.2957C42.2511 15.3803 42.1664 15.465 42.0848 15.5466C42.0788 15.5527 42.0757 15.5587 42.0697 15.5617C42.0697 15.5647 42.0697 15.5708 42.0697 15.5738C42.0697 15.5859 42.0637 15.592 42.0576 15.601H42.0546C42.0546 15.601 42.0365 15.6101 42.0183 15.6101C41.9458 15.6705 41.8672 15.725 41.7976 15.7884C41.7916 15.7945 41.7856 15.7975 41.7795 15.8036C41.5135 16.0545 41.2445 16.3054 40.9815 16.5623C40.9633 16.5804 40.9452 16.5955 40.9301 16.6107C40.8485 16.6923 40.7638 16.7679 40.6792 16.8464C40.4676 17.0429 40.2499 17.2334 40.0474 17.4389C39.9386 17.5508 39.8267 17.6626 39.7179 17.7715C39.0891 18.4093 38.4664 19.0532 37.8649 19.7182C37.0971 20.5676 36.3504 21.4322 35.6249 22.3148C35.5221 22.4418 35.4163 22.5657 35.3136 22.6927C35.2984 22.7108 35.2803 22.732 35.2682 22.7532C35.247 22.7834 35.2259 22.8136 35.2047 22.8469C35.1775 22.8892 35.1503 22.9315 35.1231 22.9708C35.102 23.001 35.0808 23.0283 35.0566 23.0585C35.0475 23.0675 35.0415 23.0766 35.0354 23.0827C35.0022 23.1189 34.9689 23.1522 34.9296 23.1794C34.9296 23.1885 34.9266 23.1915 34.9236 23.1975C34.9236 23.2036 34.9236 23.2096 34.9176 23.2157C34.9176 23.2187 34.9115 23.2217 34.9085 23.2247C34.9024 23.2278 34.8934 23.2308 34.8873 23.2338C34.8692 23.3184 34.7997 23.3608 34.7422 23.4152C34.7392 23.4152 34.7362 23.4212 34.7332 23.4243C34.715 23.4394 34.7029 23.4575 34.6908 23.4756C34.6848 23.4847 34.6787 23.4938 34.6757 23.5059C34.6727 23.518 34.6667 23.527 34.6636 23.5391C34.6636 23.5452 34.6636 23.5482 34.6636 23.5542C34.6636 23.5693 34.6576 23.5784 34.6455 23.5875C34.6455 23.5875 34.6394 23.5875 34.6394 23.5905C34.6364 23.5905 34.6304 23.5905 34.6274 23.5905C34.6243 23.5905 34.6213 23.5905 34.6153 23.5905C34.4823 23.7568 34.3462 23.923 34.2132 24.0893C34.2072 24.0984 34.1981 24.1074 34.1921 24.1165C34.1951 24.1377 34.1951 24.1558 34.1921 24.1739C34.1921 24.189 34.183 24.1981 34.1769 24.2102C34.1769 24.2132 34.1709 24.2193 34.1709 24.2223C34.1618 24.2314 34.1497 24.2435 34.1377 24.2495C34.1225 24.2586 34.1044 24.2646 34.0863 24.2707C34.0651 24.2948 34.0439 24.316 34.0228 24.3402C34.0137 24.3493 34.0077 24.3583 34.0016 24.3644C33.9835 24.3825 33.9684 24.4037 33.9533 24.4218C33.6117 24.8813 33.2701 25.3438 32.9285 25.8033C32.9285 25.8184 32.9224 25.8274 32.9134 25.8365C32.9134 25.8365 32.9104 25.8395 32.9073 25.8426C32.9013 25.8486 32.8922 25.8516 32.8832 25.8516C32.6474 26.1841 32.4055 26.5136 32.1728 26.8492C32.1274 26.9157 32.0821 26.9822 32.0367 27.0487C31.6891 27.5596 31.3626 28.0855 31.012 28.5934C30.8367 28.8473 30.6704 29.1073 30.5041 29.3642C30.3349 29.6212 30.1656 29.8781 29.9812 30.129C29.688 30.5311 29.4371 30.9694 29.1801 31.3956C29.0683 31.58 28.9565 31.7644 28.8476 31.9488C27.6052 34.0104 26.3991 36.0932 25.3713 38.2727C25.3109 38.3996 25.2413 38.5175 25.1718 38.6384C25.1023 38.7563 25.0298 38.8772 24.9693 38.9982C24.6186 39.7025 24.2771 40.4099 23.9445 41.1233C23.8206 41.3893 23.6997 41.6553 23.5757 41.9243C23.4155 42.2719 23.2583 42.6226 23.1041 42.9733C22.9077 43.4176 22.7112 43.865 22.5177 44.3154C22.4361 44.5028 22.3575 44.6933 22.2789 44.8837C22.1791 45.1195 22.0794 45.3553 21.9827 45.5941C21.638 46.4314 21.3055 47.2778 20.9821 48.1243C20.8884 48.3721 20.7947 48.62 20.704 48.8709C20.4833 49.4755 20.2687 50.0801 20.0541 50.6877C20.0027 50.8328 19.9513 50.9779 19.8999 51.123C19.8606 51.2348 19.8213 51.3497 19.785 51.4645C19.6853 51.7517 19.5916 52.0419 19.5009 52.3321C19.389 52.6858 19.2802 53.0395 19.1714 53.3931C19.0928 53.6471 19.0142 53.898 18.9326 54.1519C18.7482 54.7172 18.5335 55.2764 18.461 55.8719C18.458 55.9021 18.4217 55.9293 18.4036 55.9566C18.3129 56.2044 18.2585 56.4584 18.198 56.7123C18.1678 56.8332 18.1315 56.9541 18.0952 57.075C18.0589 57.1959 18.0227 57.3169 17.9894 57.4378C17.8504 57.9577 17.7143 58.4807 17.5874 59.0036C17.4695 59.4752 17.3576 59.9528 17.2488 60.4274C17.1279 60.9625 17.013 61.4975 16.9012 62.0326C16.8044 62.5011 16.7108 62.9727 16.6231 63.4442C16.5536 63.8191 16.484 64.1909 16.4205 64.5657C16.3631 64.8952 16.3117 65.2247 16.2573 65.5542C16.1908 65.9744 16.1273 66.3916 16.0699 66.8117C16.0185 67.1896 15.9701 67.5644 15.9218 67.9423C15.7948 68.9792 15.692 70.016 15.6104 71.0589C15.5892 71.3582 15.5681 71.6544 15.553 71.9537C15.5348 72.2529 15.5197 72.5492 15.5076 72.8484C15.4834 73.444 15.4653 74.0425 15.4472 74.638C15.4442 74.774 15.4442 74.9101 15.4411 75.0461C15.4411 75.0884 15.4411 75.1277 15.4411 75.17C15.4381 75.9348 15.4683 76.6966 15.4925 77.4553C15.4925 77.4886 15.4986 77.5249 15.4986 77.5581C15.5046 77.6941 15.5107 77.8302 15.5197 77.9662C15.5469 78.5164 15.5923 79.0665 15.6497 79.6167C15.689 79.9885 15.7313 80.3633 15.7797 80.7352C15.7857 80.7896 15.7948 80.841 15.8009 80.8954C15.9037 81.6511 16.0216 82.4038 16.1697 83.1504C16.4448 84.547 16.8105 85.9194 17.3123 87.2525C17.3214 87.2737 17.3304 87.2978 17.3395 87.322C17.7143 88.3075 18.1496 89.2657 18.6847 90.1786C19.5643 91.681 20.6375 93.0111 22.0068 94.0721C22.1701 94.1991 22.3363 94.32 22.5056 94.4409C22.6688 94.5528 22.8442 94.6556 23.0135 94.7583C23.0437 94.7795 23.08 94.7946 23.1132 94.8097C23.1374 94.8218 23.1616 94.8309 23.1858 94.843C23.2281 94.8641 23.2674 94.8913 23.2946 94.9306C23.3037 94.9427 23.3127 94.9609 23.3218 94.979V94.973C23.3671 94.9669 23.4064 94.976 23.4276 95.0243H23.4306C23.4729 95.0243 23.5123 95.0364 23.5334 95.0757C23.5455 95.0757 23.5546 95.0757 23.5636 95.0788H23.5667C23.5939 95.0848 23.618 95.0969 23.6362 95.1241C23.6362 95.1241 23.6362 95.1241 23.6362 95.1271C23.6362 95.1271 23.6422 95.1271 23.6452 95.1271C23.6513 95.1271 23.6573 95.1271 23.6634 95.1271C23.6694 95.1271 23.6724 95.1301 23.6815 95.1301C23.6845 95.1301 23.6906 95.1301 23.6936 95.1332C23.6997 95.1332 23.7057 95.1392 23.7117 95.1422C23.7117 95.1422 23.7178 95.1422 23.7208 95.1453C23.7269 95.1513 23.7329 95.1573 23.739 95.1634C23.739 95.1634 23.739 95.1634 23.742 95.1634C23.7994 95.2239 23.878 95.239 23.9506 95.2722C25.459 95.9403 26.9704 96.6083 28.4789 97.2764C29.2255 97.6059 29.9661 97.9535 30.755 98.1712C31.544 98.3888 32.3451 98.5369 33.1643 98.5702C33.3003 98.5702 33.4363 98.5702 33.5724 98.5702C33.9805 98.5702 34.3886 98.5702 34.7966 98.5702C35.1926 98.5581 35.5856 98.5067 35.9756 98.4462C37.5626 98.2074 39.0861 97.7389 40.5583 97.1071C43.2547 95.9493 45.6881 94.3684 47.9704 92.5395C48.4722 92.1375 48.9619 91.7233 49.4486 91.3032C51.1444 91.3334 52.8372 91.3425 54.5331 91.3243C56.1473 91.3062 57.7645 91.279 59.3788 91.2155C59.4573 91.1702 59.542 91.1702 59.6266 91.2034C59.6508 91.2034 59.675 91.2034 59.6992 91.2034C59.7959 91.1581 59.8957 91.1611 59.9954 91.1913H60.068C60.1254 91.155 60.1859 91.149 60.2463 91.1611C60.2463 91.1611 60.2493 91.1611 60.2524 91.1611H60.2554C60.2766 91.1671 60.2947 91.1732 60.3128 91.1792H60.3854C60.4247 91.155 60.464 91.146 60.5033 91.143C60.5456 91.143 60.5879 91.152 60.6333 91.1641C60.6574 91.1641 60.6816 91.1641 60.7058 91.1641C60.733 91.149 60.7602 91.1399 60.7874 91.1339C60.8418 91.1218 60.8993 91.1278 60.9567 91.149C60.9809 91.149 61.002 91.149 61.0262 91.149C61.0262 91.149 61.0323 91.149 61.0353 91.146C61.1139 91.1067 61.1955 91.1067 61.2741 91.1369C61.2983 91.1369 61.3225 91.1369 61.3436 91.1369C61.4252 91.0855 61.5069 91.0916 61.5945 91.1218C61.6187 91.1218 61.6429 91.1218 61.6641 91.1218C61.7457 91.0734 61.8303 91.0795 61.915 91.1067C61.9391 91.1067 61.9633 91.1067 61.9845 91.1067C62.0026 91.0946 62.0177 91.0885 62.0328 91.0825C62.0601 91.0734 62.0842 91.0734 62.1114 91.0734C62.1356 91.0734 62.1628 91.0795 62.187 91.0916C62.5558 91.0734 62.9216 91.0613 63.2904 91.0402C66.1137 90.8739 68.928 90.6502 71.7393 90.3389C76.0076 89.8643 80.2488 89.2264 84.4385 88.2712C87.2921 87.6213 90.1064 86.8414 92.827 85.7441C94.2871 85.1546 95.7048 84.4805 97.0167 83.5978C97.8057 83.0658 98.5372 82.4673 99.1237 81.7025C99.4925 81.2158 99.7917 80.6928 99.9066 80.0822C99.9519 80.0338 99.9701 79.9764 99.9731 79.916C100 79.4776 100.015 79.0423 99.9761 78.604L99.9519 78.607ZM62.0601 69.36C61.2741 69.3117 60.4912 69.2693 59.7052 69.2361C60.4912 69.2724 61.2741 69.3147 62.0601 69.36ZM44.6271 83.6311C44.5001 83.7429 44.3731 83.8578 44.2462 83.9696C43.3544 84.7526 42.4355 85.4932 41.4772 86.1854C40.519 86.8746 39.5244 87.5155 38.4846 88.0868C38.3364 88.1684 38.1853 88.25 38.0342 88.3286C37.6865 88.51 37.3359 88.6823 36.9822 88.8486C36.6285 89.0118 36.2688 89.163 35.906 89.305C35.1805 89.5892 34.4369 89.825 33.6691 90.0064C33.3366 90.0849 33.0041 90.1514 32.6716 90.2028C32.5537 90.221 32.4358 90.2391 32.3209 90.2572C31.8675 90.3177 31.414 90.354 30.9576 90.3661C30.8064 90.3691 30.6523 90.3721 30.5011 90.3691C30.347 90.3691 30.1958 90.363 30.0417 90.357C29.9752 90.354 29.9117 90.3449 29.8452 90.3389C29.7817 90.3328 29.7152 90.3238 29.6487 90.3177C29.5641 90.3117 29.5006 90.2754 29.4371 90.221C29.2557 90.0577 29.0834 89.8885 28.9141 89.7131C28.6632 89.4532 28.4244 89.1811 28.2007 88.9C28.0526 88.7126 27.9075 88.5191 27.7685 88.3196C27.6989 88.2198 27.6324 88.1201 27.5659 88.0203C27.5599 88.0112 27.5569 88.0022 27.5538 87.9931C27.5508 87.978 27.5448 87.9599 27.5417 87.9447C27.5145 87.9175 27.4783 87.8903 27.4571 87.8601L27.4511 87.854C27.1397 87.3613 26.8586 86.8535 26.6046 86.3305C26.4777 86.0675 26.3568 85.8076 26.2449 85.5385C26.1301 85.2725 26.0243 85.0005 25.9245 84.7254C25.9124 84.6921 25.9155 84.6589 25.9094 84.6226C25.7341 84.2961 25.6464 83.9394 25.5376 83.5918C25.2957 82.8149 25.1053 82.0259 24.9481 81.2279C24.9209 81.0858 24.8937 80.9468 24.8665 80.8047C24.8544 80.7472 24.8484 80.6928 24.8363 80.6354C24.8242 80.5659 24.8091 80.4963 24.797 80.4268C24.797 80.4087 24.797 80.3936 24.7909 80.3754C24.7849 80.315 24.7819 80.2515 24.7758 80.191C24.6731 79.7467 24.6277 79.2932 24.5763 78.8398C24.401 77.3949 24.3345 75.9439 24.3315 74.4929C24.3315 73.9458 24.3375 73.3956 24.3526 72.8454C24.3617 72.5189 24.3768 72.1955 24.3949 71.8721C25.589 71.5879 26.7921 71.337 27.9982 71.1073C30.0598 70.7173 32.1335 70.3999 34.2132 70.143C34.2465 70.1399 34.2797 70.1339 34.313 70.1309C34.3523 70.1248 34.3916 70.1218 34.4309 70.1248C34.4551 70.1248 34.4792 70.1309 34.5034 70.1369C34.8269 70.0674 35.1564 70.0311 35.4859 69.9979C35.637 69.9827 35.7881 69.9676 35.9363 69.9525C38.2216 69.6986 40.5099 69.5051 42.8012 69.3661C43.4451 69.3268 44.089 69.2905 44.7298 69.2603C46.3743 69.1817 48.0187 69.1303 49.6632 69.1001C50.564 69.0819 51.4648 69.0729 52.3657 69.0729C53.6504 69.0729 54.9351 69.088 56.2168 69.1182C55.9387 69.5807 55.6576 70.0432 55.3704 70.4997C55.1618 70.8352 54.9502 71.1677 54.7356 71.4972C54.3517 72.0867 53.9617 72.6701 53.5627 73.2505C52.8251 74.3206 52.0603 75.3695 51.2653 76.3973C51.0144 76.7238 50.7605 77.0472 50.5005 77.3677C50.4552 77.4251 50.4098 77.4825 50.3645 77.5369C49.9897 78.0025 49.6088 78.4589 49.2188 78.9093C48.5689 79.662 47.9009 80.3966 47.2147 81.116C47.0061 81.3337 46.7975 81.5513 46.5859 81.766C46.0418 82.3161 45.4795 82.8542 44.9052 83.3772C44.8115 83.4618 44.7178 83.5495 44.624 83.6341L44.6271 83.6311ZM47.6862 83.486C48.3513 83.5071 49.0193 83.5253 49.6844 83.5374C49.0163 83.5253 48.3513 83.5071 47.6862 83.486ZM91.645 76.4064C91.6269 76.4306 91.5967 76.4547 91.5483 76.491C91.4848 76.5394 91.4214 76.5908 91.3548 76.6361C91.2914 76.6845 91.2249 76.7298 91.1584 76.7782C91.0344 76.8659 90.9075 76.9505 90.7775 77.0321C90.7624 77.0412 90.7472 77.0503 90.7321 77.0623C90.6263 77.1289 90.5205 77.1954 90.4117 77.2588C90.2515 77.3556 90.0943 77.4463 89.9311 77.5369C88.8247 78.1536 87.6609 78.6494 86.4729 79.0877C85.3514 79.4988 84.2148 79.8585 83.0691 80.1789C81.4277 80.6384 79.7651 81.0193 78.0874 81.3518C76.4581 81.6783 74.8227 81.9534 73.1813 82.1922C71.5398 82.431 69.8924 82.6305 68.2419 82.8028C67.7008 82.8602 67.1597 82.9116 66.6186 82.963C65.5334 83.0628 64.4481 83.1474 63.3629 83.22C62.8188 83.2562 62.2747 83.2895 61.7336 83.3197C60.5154 83.3892 59.2971 83.4406 58.0789 83.4799C57.8582 83.486 57.6376 83.495 57.4139 83.5011C57.2113 83.5071 57.0088 83.5132 56.8033 83.5192C57.302 82.9026 57.8008 82.2889 58.2573 81.639C58.3238 81.5574 58.3903 81.4758 58.4537 81.3911C59.4301 80.0762 60.3672 78.737 61.2681 77.3737C61.3164 77.2981 61.5673 76.9172 61.6429 76.7994C62.2142 75.9197 62.7674 75.031 63.3085 74.1301C64.1912 72.655 65.0346 71.1587 65.8356 69.6412C67.3652 69.7742 68.8918 69.9283 70.4183 70.1158C70.5302 70.1278 70.642 70.152 70.7569 70.1702C71.4401 70.2185 72.1172 70.3213 72.7913 70.4211C73.6589 70.548 74.5264 70.6871 75.391 70.8322C76.5578 71.0287 77.7247 71.2463 78.8824 71.4972C79.5082 71.6332 80.1309 71.7723 80.7566 71.9083C80.7627 71.9083 80.7717 71.9083 80.7778 71.9113C80.7838 71.9113 80.7899 71.9114 80.7989 71.9144C80.8382 71.9204 80.8836 71.9204 80.9259 71.9265C80.9803 71.9325 81.0347 71.9476 81.077 71.993C82.4132 72.3346 83.7462 72.6943 85.0552 73.1265C85.1761 73.1658 85.3151 73.1779 85.4088 73.2807C85.7504 73.3412 86.0618 73.4832 86.3822 73.6011C86.6633 73.7039 86.9445 73.8127 87.2226 73.9246C88.0176 74.239 88.7975 74.5866 89.5532 74.9886C89.8525 75.1458 90.1457 75.3121 90.4359 75.4874C90.8198 75.7202 91.1946 75.965 91.5453 76.2462C91.6481 76.3278 91.6783 76.361 91.639 76.4094L91.645 76.4064Z"
    fill="#007FFF" />
  <path
    d="M99.9791 54.6199C99.9429 53.8975 99.6678 53.2596 99.2476 52.6792C98.6551 51.854 97.8903 51.2101 97.0621 50.6418C95.6504 49.6745 94.1057 48.9641 92.5247 48.3293C91.645 47.9756 90.7533 47.6612 89.8525 47.371C88.4801 46.9297 87.0865 46.5518 85.6869 46.2072C83.9367 45.778 82.1774 45.4062 80.406 45.0827C79.3268 44.8862 78.2446 44.6958 77.1594 44.5386C77.1261 44.5386 77.0929 44.5356 77.0596 44.5326C77.0415 44.5326 77.0203 44.5295 77.0022 44.5265C76.9629 44.5235 76.9206 44.5174 76.8813 44.5144C76.7906 44.5023 76.6969 44.4842 76.6092 44.463C76.2858 44.4116 75.9653 44.3603 75.6419 44.3058C75.4545 44.2786 75.267 44.2514 75.0796 44.2272C75.0071 44.2152 74.9345 44.2061 74.862 44.197C74.1153 44.1063 73.3656 44.0187 72.619 43.9219C72.4013 43.8947 72.1837 43.8766 71.966 43.8524C71.7484 43.8312 71.5308 43.804 71.3161 43.7617C69.8651 43.6257 68.4142 43.4806 66.9602 43.3627C66.7576 43.3476 66.5551 43.3294 66.3526 43.3143C65.1011 43.2146 63.8496 43.1299 62.5951 43.0695C61.9935 43.0423 61.389 43.009 60.7844 42.9788C60.3279 42.9576 59.8685 42.9334 59.412 42.9153C58.3661 42.876 57.3232 42.8518 56.2773 42.8307C55.8873 42.8216 55.4974 42.8156 55.1104 42.8095C55.1104 42.8095 55.8269 39.9257 56.114 38.4686C56.3317 37.3774 56.5191 36.2801 56.6854 35.1797C56.7942 34.4422 56.8909 33.7046 56.9756 32.964C57.0632 32.1901 57.1328 31.4132 57.1811 30.6334C57.2325 29.8021 57.2658 28.9678 57.2839 28.1365C57.3051 27.021 57.2688 25.9086 57.1872 24.7962C57.1327 24.0616 57.0632 23.3301 56.9695 22.5986C56.8426 21.598 56.6612 20.6095 56.4224 19.6301C56.2319 18.8472 56.0143 18.0672 55.7241 17.3115C55.709 17.3115 55.6939 17.3115 55.6787 17.3176C55.6636 17.3176 55.6485 17.3236 55.6364 17.3266C55.5881 17.3418 55.5457 17.3659 55.5004 17.3841C54.2308 17.9161 53.0307 18.5781 51.8729 19.3157C51.8064 19.358 51.7339 19.3913 51.7067 19.4729C51.9848 21.2292 52.1148 22.9946 52.1299 24.772C52.1541 27.3143 51.9666 29.8414 51.619 32.3594C51.356 34.2547 51.0084 36.135 50.5852 38.0031C50.2194 39.6234 49.7962 41.2285 49.3246 42.8186C48.185 42.8307 47.0424 42.8669 45.9027 42.9032C44.3852 42.9546 42.8677 43.0241 41.3533 43.1209C40.0172 43.2055 38.678 43.2932 37.3419 43.408C35.6068 43.5592 33.8747 43.7285 32.1486 43.9401C31.7345 44.7986 31.3324 45.6631 30.9455 46.5337C30.3681 47.8335 29.824 49.1455 29.3132 50.4695C29.3373 50.4665 29.3585 50.4635 29.3827 50.4604C31.3989 50.1763 33.4243 49.9405 35.4496 49.738C36.03 49.6805 36.6104 49.611 37.1938 49.5596C38.6327 49.4387 40.0746 49.3571 41.5165 49.2664C43.3907 49.1455 45.2679 49.0699 47.1482 49.0155C47.1723 49.0155 47.1935 49.0155 47.2177 49.0155C48.8168 48.9702 50.4159 48.949 52.018 48.946C52.4201 48.946 52.8221 48.946 53.2272 48.949C54.1401 48.952 55.056 48.9611 55.9689 48.9762C57.0058 48.9943 58.0396 49.0336 59.0765 49.0699C59.0855 49.0699 59.0946 49.0699 59.1037 49.0699C60.0952 49.1062 61.0867 49.1425 62.0782 49.1908C62.84 49.2271 63.6017 49.2815 64.3635 49.3389C64.5267 49.351 64.69 49.3631 64.8532 49.3752C65.9959 49.4568 67.1355 49.5415 68.2781 49.6291C68.5593 49.6503 68.8374 49.6896 69.1185 49.7168C70.6299 49.8498 72.1384 50.0191 73.6438 50.2126C74.3179 50.2972 74.9889 50.3879 75.663 50.4786C77.0808 50.6751 78.4955 50.9108 79.9042 51.1557C81.2614 51.3945 82.6157 51.6635 83.9578 51.9689C85.1398 52.2379 86.3157 52.5311 87.4825 52.8485C89.0151 53.2657 90.5205 53.7524 92.0078 54.3025C93.2925 54.7801 94.5349 55.3424 95.738 55.9984C96.5663 56.4518 97.3523 56.9596 98.0687 57.5763C98.7186 58.1355 99.2869 58.7643 99.6648 59.5503C99.8159 59.8616 99.8854 60.1972 99.9822 60.5236C99.9852 59.8737 99.9912 59.2238 99.9943 58.5739C99.9943 57.6096 99.9943 56.6422 99.9943 55.6779C99.9943 55.3273 100.006 54.9736 99.9882 54.626L99.9791 54.6199Z"
    fill="#FF1100" />
  <path
    d="M61.8212 8.50616C61.5885 8.43059 61.3497 8.37617 61.126 8.27037C61.126 8.24014 61.129 8.20992 61.132 8.17969C61.4101 8.26433 61.6731 8.38222 61.918 8.53941C61.8847 8.52732 61.8515 8.51825 61.8182 8.50616H61.8212Z"
    fill="#404A5A" />
  <path
    d="M61.0081 8.22224C61.0081 8.22224 61.0292 8.23131 61.0353 8.24038C61.0353 8.24038 61.0323 8.24038 61.0292 8.24038C61.0051 8.25549 60.99 8.2434 60.9748 8.22224C60.9869 8.21922 60.996 8.21619 61.0081 8.22224Z"
    fill="#404A5A" />
  <path
    d="M32.9043 25.8057C32.9043 25.8057 32.8983 25.8298 32.8892 25.8389C32.8892 25.8389 32.8862 25.8419 32.8831 25.845C32.8771 25.851 32.868 25.854 32.859 25.854C32.859 25.851 32.859 25.848 32.859 25.845V25.8359C32.859 25.8359 32.8771 25.8178 32.8862 25.8117C32.8922 25.8117 32.8983 25.8057 32.9043 25.8057Z"
    fill="#404A5A" />
  <path
    d="M34.1497 24.2192C34.1497 24.2192 34.1286 24.2403 34.1165 24.2464C34.1014 24.2555 34.0863 24.2615 34.0651 24.2675C34.0651 24.2554 34.0651 24.2464 34.0651 24.2373C34.0651 24.2282 34.0651 24.2192 34.0681 24.2131C34.0742 24.198 34.0802 24.1829 34.0893 24.1708C34.0983 24.1587 34.1135 24.1497 34.1256 24.1376C34.1407 24.1285 34.1558 24.1194 34.1709 24.1104C34.1739 24.1315 34.1739 24.1496 34.1709 24.1678C34.1709 24.1829 34.1618 24.192 34.1558 24.2041C34.1558 24.2071 34.1497 24.2131 34.1497 24.2162V24.2192Z"
    fill="#404A5A" />
  <path
    d="M34.6243 23.5808C34.6243 23.5808 34.6183 23.5808 34.6183 23.5838C34.6153 23.5838 34.6092 23.5838 34.6062 23.5838C34.6032 23.5838 34.6001 23.5838 34.5941 23.5838C34.6092 23.5657 34.6243 23.5445 34.6394 23.5264C34.6394 23.5324 34.6394 23.5354 34.6394 23.5415C34.6394 23.5566 34.6334 23.5657 34.6213 23.5747L34.6243 23.5808Z"
    fill="#215CB5" />
  <path
    d="M34.8692 23.2092C34.8692 23.1941 34.8813 23.182 34.8934 23.176C34.8994 23.176 34.9055 23.1729 34.9115 23.1699C34.9115 23.179 34.9085 23.182 34.9055 23.1881C34.9055 23.1941 34.9055 23.2002 34.8994 23.2062C34.8994 23.2092 34.8934 23.2122 34.8903 23.2153C34.8843 23.2183 34.8752 23.2213 34.8692 23.2243C34.8692 23.2183 34.8692 23.2153 34.8692 23.2092Z"
    fill="#215CB5" />
  <path
    d="M56.3287 6.08474C56.3861 6.06056 56.4224 6.08474 56.4556 6.13008C56.4042 6.14218 56.3498 6.15427 56.3287 6.08776V6.08474Z"
    fill="#FEC35E" />
  <path d="M56.3256 6.08496H56.3287L56.3256 6.08798V6.08496Z" fill="#FDBF41" />
  <path
    d="M42.0032 15.5972C42.0213 15.5821 42.0365 15.567 42.0546 15.5488C42.0546 15.5519 42.0546 15.5579 42.0546 15.5609C42.0546 15.573 42.0485 15.5791 42.0425 15.5881H42.0395C42.0395 15.5881 42.0213 15.5972 42.0032 15.5972Z"
    fill="#404A5A" />
  <path
    d="M42.3569 15.2407C42.372 15.2316 42.3901 15.2256 42.4113 15.2256C42.4113 15.2528 42.4052 15.2679 42.3932 15.274C42.375 15.286 42.3418 15.277 42.3176 15.28C42.3297 15.2619 42.3418 15.2498 42.3569 15.2407Z"
    fill="#404A5A" />
  <path
    d="M42.5836 15.0902C42.5836 15.0902 42.5775 15.1144 42.5685 15.1235C42.5685 15.1235 42.5624 15.1265 42.5594 15.1295C42.5534 15.1325 42.5443 15.1356 42.5352 15.1356C42.5503 15.1174 42.5685 15.0963 42.5836 15.0781C42.5836 15.0842 42.5836 15.0872 42.5836 15.0932V15.0902Z"
    fill="#404A5A" />
  <path
    d="M45.5793 12.7135C45.5793 12.7135 45.5732 12.7256 45.5702 12.7317C45.5611 12.7407 45.5491 12.7438 45.5309 12.7438C45.546 12.7256 45.5642 12.7105 45.5823 12.6924C45.5823 12.7015 45.5823 12.7075 45.5823 12.7166L45.5793 12.7135Z"
    fill="#404A5A" />
  <path
    d="M45.5249 12.7471C45.5249 12.7471 45.5249 12.7561 45.5249 12.7592C45.5249 12.7713 45.5188 12.7773 45.5128 12.7803C45.5067 12.7833 45.5007 12.7833 45.4886 12.7803C45.4856 12.7803 45.4795 12.7803 45.4765 12.7743C45.4946 12.7652 45.5098 12.7561 45.5279 12.7471H45.5249Z"
    fill="#404A5A" />
  <path
    d="M61.1109 8.16433C59.6176 7.4993 58.1212 6.83728 56.6279 6.16923C56.5675 6.14202 56.507 6.16318 56.4526 6.12993C56.4012 6.14202 56.3468 6.15411 56.3256 6.08761C56.2652 6.11481 56.2077 6.08761 56.1503 6.06645C54.8414 5.67347 53.5023 5.55256 52.1389 5.62208C50.3343 5.71579 48.6052 6.15713 46.9245 6.80705C46.3954 7.00959 45.8755 7.23328 45.3677 7.47209C45.2407 7.53255 45.1137 7.593 44.9868 7.65649C44.8387 7.72903 44.6905 7.80158 44.5454 7.88018C44.349 7.97993 44.1555 8.08271 43.959 8.18851C42.9403 8.74472 41.9518 9.36442 40.9936 10.0295C40.794 10.1685 40.5945 10.3076 40.398 10.4496L40.2801 10.5343C39.8086 10.8789 39.3461 11.2295 38.8926 11.5923C37.756 12.4961 36.6648 13.4574 35.6098 14.464C32.6806 17.2602 30.0779 20.3466 27.6959 23.6173C27.6355 23.702 27.575 23.7896 27.5146 23.8743C27.5146 23.8743 27.5085 23.8954 27.5025 23.9015C27.4964 23.9075 27.4874 23.9105 27.4753 23.9136C27.2606 24.2189 27.049 24.5212 26.8344 24.8265C26.4777 25.3343 26.1271 25.8422 25.7824 26.3591C25.456 26.8488 25.1325 27.3445 24.8151 27.8403C24.5612 28.2333 24.3133 28.6293 24.0685 29.0283C23.8508 29.385 23.6332 29.7387 23.4185 30.0954C23.1163 30.6002 22.817 31.108 22.5208 31.6219C22.3726 31.8788 22.2275 32.1327 22.0824 32.3927C22.0673 32.4229 22.0462 32.4501 22.028 32.4804C22.028 32.5136 22.0159 32.5408 22.0038 32.568C21.9917 32.5862 21.9797 32.6073 21.9706 32.6255C21.8346 32.8673 21.7015 33.1122 21.5685 33.357C21.0667 34.2729 20.577 35.1979 20.1055 36.129C19.906 36.522 19.7095 36.918 19.516 37.314C18.4701 39.4542 17.4997 41.6276 16.608 43.8313C16.1334 45.0012 15.683 46.1801 15.2537 47.3651C15.027 47.9938 14.8033 48.6256 14.5887 49.2604C14.1927 50.4333 13.83 51.6152 13.4763 52.8002C13.3312 53.2869 13.1891 53.7766 13.0531 54.2663C13.05 54.2784 13.047 54.2905 13.044 54.3026C12.8294 55.0704 12.6299 55.8412 12.4424 56.6151C12.2701 57.3104 12.1039 58.0086 11.9497 58.71C11.8167 59.3085 11.6958 59.91 11.5749 60.5116C11.5477 60.6537 11.5205 60.7958 11.4933 60.9408C11.4812 60.9983 11.4721 61.0557 11.46 61.1132C11.457 61.1343 11.4509 61.1555 11.4479 61.1797C11.4268 61.2945 11.4026 61.4064 11.3814 61.5212C11.2091 62.4614 11.0549 63.4045 10.9219 64.3537C10.792 65.2696 10.6771 66.1825 10.5803 67.1015C10.5592 67.307 10.5411 67.5126 10.5199 67.7182C10.5199 67.7333 10.5169 67.7484 10.5169 67.7635C10.5018 67.9207 10.4927 68.0325 10.4806 68.1444C10.4383 68.6553 10.402 69.1691 10.3718 69.68C10.3415 70.1939 10.3174 70.7078 10.3022 71.2217C10.3022 71.2882 10.3022 71.3547 10.2962 71.4212C10.266 72.4097 10.2599 73.3951 10.2902 74.3806C10.3204 75.3116 10.3718 76.2397 10.4594 77.1677C10.5441 78.0927 10.662 79.0147 10.8222 79.9367C10.9008 80.3871 10.9854 80.8345 11.0821 81.2788C11.4026 82.7782 11.8348 84.2473 12.4273 85.6681C12.4697 85.7678 12.509 85.8645 12.5543 85.9643C12.5966 86.061 12.642 86.1608 12.6843 86.2575C12.7871 86.4873 12.8959 86.714 13.0077 86.9377C13.1951 87.3125 13.3947 87.6783 13.6063 88.035C14.1867 89.0144 14.8698 89.9243 15.68 90.7465C15.8916 90.9642 16.1122 91.1697 16.3389 91.3662C16.7652 91.738 17.2186 92.0796 17.7023 92.3849C17.793 92.4424 17.8988 92.4756 17.9653 92.5633C17.9743 92.5754 17.9834 92.5905 17.9894 92.6056C18.0348 92.5965 18.068 92.6056 18.0801 92.6539C18.2676 92.6993 18.4187 92.8263 18.591 92.9018C19.51 93.3099 20.4259 93.718 21.3448 94.1261C21.8678 94.3589 22.3938 94.5856 22.9198 94.8153L22.9863 94.7549C22.817 94.6491 22.6417 94.5493 22.4784 94.4374C22.3061 94.3196 22.1429 94.1956 21.9797 94.0687C20.6103 93.0046 19.5372 91.6776 18.6575 90.1752C18.1225 89.2623 17.6872 88.304 17.3123 87.3186C17.3032 87.2944 17.2942 87.2732 17.2851 87.249C16.7833 85.9159 16.4175 84.5435 16.1425 83.147C15.9943 82.4003 15.8764 81.6476 15.7737 80.8919C15.7676 80.8375 15.7586 80.7861 15.7525 80.7317C15.7041 80.3599 15.6618 79.985 15.6225 79.6132C15.5651 79.0631 15.5228 78.5159 15.4925 77.9627C15.4865 77.8267 15.4774 77.6907 15.4714 77.5546C15.4714 77.5214 15.4684 77.4851 15.4653 77.4519C15.4381 76.6901 15.4109 75.9283 15.4139 75.1666C15.4139 75.1242 15.4139 75.0819 15.4139 75.0426C15.4139 74.9066 15.4139 74.7706 15.42 74.6345C15.4381 74.036 15.4563 73.4405 15.4804 72.845C15.4925 72.5457 15.5077 72.2495 15.5258 71.9502C15.5439 71.6509 15.5621 71.3547 15.5832 71.0554C15.6618 70.0125 15.7676 68.9757 15.8946 67.9388C15.9399 67.561 15.9883 67.1861 16.0427 66.8083C16.1001 66.3881 16.1636 65.9679 16.2301 65.5508C16.2815 65.2213 16.3359 64.8918 16.3934 64.5623C16.4568 64.1874 16.5264 63.8156 16.5959 63.4408C16.6836 62.9692 16.7773 62.5007 16.874 62.0291C16.9858 61.494 17.1007 60.956 17.2216 60.4239C17.3305 59.9493 17.4423 59.4747 17.5602 59.0002C17.6902 58.4772 17.8232 57.9542 17.9622 57.4343C17.9955 57.3134 18.0318 57.1925 18.068 57.0716C18.1043 56.9506 18.1406 56.8297 18.1708 56.7088C18.2343 56.4549 18.2857 56.201 18.3764 55.9531C18.3975 55.9259 18.4308 55.8987 18.4338 55.8684C18.5064 55.2699 18.721 54.7107 18.9054 54.1484C18.987 53.8975 19.0656 53.6436 19.1442 53.3897C19.253 53.036 19.3618 52.6823 19.4737 52.3286C19.5644 52.0384 19.6581 51.7483 19.7578 51.4611C19.7971 51.3492 19.8334 51.2344 19.8727 51.1195C19.9241 50.9744 19.9755 50.8293 20.0269 50.6842C20.2445 50.0796 20.4561 49.472 20.6768 48.8674C20.7675 48.6196 20.8612 48.3687 20.9549 48.1208C21.2783 47.2714 21.6109 46.428 21.9555 45.5906C22.0522 45.3518 22.152 45.116 22.2517 44.8803C22.3333 44.6898 22.4119 44.5024 22.4905 44.3119C22.684 43.8646 22.8805 43.4172 23.077 42.9698C23.2311 42.6191 23.3883 42.2715 23.5485 41.9208C23.6694 41.6518 23.7934 41.3888 23.9173 41.1198C24.2498 40.4064 24.5884 39.699 24.9421 38.9947C25.0025 38.8708 25.0751 38.7529 25.1446 38.635C25.2141 38.5171 25.2837 38.3962 25.3441 38.2692C26.3719 36.0897 27.578 34.0069 28.8204 31.9453C28.9323 31.7609 29.0411 31.5765 29.153 31.3921C29.4129 30.9629 29.6608 30.5276 29.954 30.1256C30.1384 29.8747 30.3076 29.6208 30.4769 29.3608C30.6462 29.1039 30.8125 28.8439 30.9848 28.59C31.3354 28.0821 31.6619 27.5561 32.0095 27.0453C32.0549 26.9788 32.1002 26.9123 32.1456 26.8458C32.3783 26.5102 32.6202 26.1807 32.8559 25.8482C32.8559 25.8452 32.8559 25.8422 32.8559 25.8391V25.8301C32.8559 25.8301 32.8741 25.8119 32.8831 25.8059C32.8892 25.8059 32.8952 25.7999 32.9013 25.7999C33.2429 25.3404 33.5845 24.8779 33.926 24.4184C33.9412 24.3972 33.9593 24.3791 33.9744 24.361C33.9835 24.3519 33.9895 24.3428 33.9956 24.3368C34.0167 24.3126 34.0379 24.2914 34.059 24.2672C34.059 24.2552 34.059 24.2461 34.059 24.237C34.059 24.228 34.059 24.2189 34.0621 24.2128C34.0681 24.1947 34.0742 24.1826 34.0832 24.1705C34.0923 24.1584 34.1074 24.1494 34.1195 24.1373C34.1346 24.1282 34.1497 24.1191 34.1648 24.1101C34.1739 24.101 34.18 24.0919 34.186 24.0829C34.319 23.9166 34.455 23.7503 34.5881 23.5841C34.6032 23.5659 34.6183 23.5448 34.6334 23.5266C34.6334 23.5145 34.6394 23.5055 34.6455 23.4934C34.6485 23.4843 34.6546 23.4722 34.6606 23.4632C34.6727 23.445 34.6878 23.4269 34.7029 23.4118C34.7029 23.4087 34.709 23.4057 34.712 23.4027C34.7694 23.3483 34.842 23.3029 34.8571 23.2213C34.8571 23.2153 34.8571 23.2123 34.8571 23.2062C34.8571 23.1911 34.8692 23.179 34.8813 23.173C34.8873 23.173 34.8934 23.1699 34.8994 23.1669C34.9387 23.1367 34.975 23.1065 35.0052 23.0702C35.0143 23.0611 35.0203 23.052 35.0264 23.046C35.0506 23.0188 35.0717 22.9886 35.0929 22.9583C35.1201 22.919 35.1473 22.8767 35.1745 22.8344C35.1957 22.8042 35.2168 22.7709 35.238 22.7407C35.2531 22.7195 35.2682 22.6984 35.2833 22.6802C35.3861 22.5533 35.4919 22.4263 35.5947 22.3024C36.3202 21.4167 37.0668 20.5521 37.8346 19.7057C38.4362 19.0407 39.0589 18.3968 39.6877 17.759C39.7965 17.6471 39.9083 17.5353 40.0172 17.4265C40.2227 17.2209 40.4373 17.0305 40.6489 16.834C40.7336 16.7554 40.8182 16.6798 40.8998 16.5982C40.918 16.5831 40.9331 16.5649 40.9512 16.5498C41.2142 16.2959 41.4833 16.042 41.7493 15.7911C41.7553 15.785 41.7614 15.782 41.7674 15.776C41.8369 15.7125 41.9155 15.655 41.9881 15.5976C42.0062 15.5825 42.0213 15.5674 42.0395 15.5492C42.0455 15.5432 42.0485 15.5402 42.0546 15.5341C42.1362 15.4495 42.2208 15.3679 42.3025 15.2832C42.3146 15.2651 42.3266 15.253 42.3418 15.2439C42.3569 15.2349 42.375 15.2288 42.3962 15.2288C42.4204 15.2258 42.4415 15.2137 42.4597 15.2016C42.4717 15.1925 42.4838 15.1805 42.4959 15.1684C42.505 15.1593 42.511 15.1472 42.5201 15.1351C42.5352 15.117 42.5534 15.0958 42.5685 15.0777C42.7831 14.8872 42.9977 14.6998 43.2184 14.5154C43.2516 14.4882 43.2849 14.461 43.3182 14.4308C43.5298 14.2524 43.7444 14.0771 43.962 13.9018C44.4487 13.5118 44.9505 13.134 45.4614 12.7773C45.4795 12.7682 45.4946 12.7591 45.5128 12.75H45.5158C45.5309 12.7289 45.549 12.7108 45.5672 12.6956C45.682 12.611 45.7999 12.5233 45.9148 12.4417C46.1476 12.2724 46.3864 12.1092 46.6222 11.949C46.7401 11.8704 46.861 11.7888 46.9819 11.7132C47.1028 11.6346 47.2237 11.556 47.3446 11.4804C47.7104 11.2507 48.0792 11.027 48.454 10.8124C48.8621 10.5766 49.2793 10.3499 49.6964 10.1322C50.954 9.48533 52.2538 8.93819 53.6141 8.53312C53.7169 8.50289 53.8227 8.47266 53.9255 8.44244C54.651 8.2399 55.3795 8.08574 56.1201 7.98598C56.5403 7.92855 56.9665 7.88925 57.3927 7.87111C57.7131 7.856 58.0336 7.85297 58.357 7.86204C58.4658 7.86506 58.5716 7.86809 58.6805 7.87413C59.0039 7.89227 59.3243 7.92552 59.6448 7.97087C60.0891 8.03132 60.5274 8.11596 60.9658 8.22781C60.9779 8.22479 60.9869 8.22177 60.999 8.22781C61.0111 8.22781 61.0202 8.23688 61.0262 8.24595C61.0353 8.24897 61.0474 8.25199 61.0564 8.25502C61.0776 8.26106 61.0957 8.26711 61.1169 8.27618C61.1169 8.24595 61.1199 8.21572 61.123 8.18549C61.1169 8.17944 61.1109 8.1734 61.1018 8.17038L61.1109 8.16433Z"
    fill="#F1ECE2" />
  <path
    d="M56.3287 6.08514C56.3075 5.99143 56.2168 5.98237 56.1503 5.95214C54.8626 5.38081 53.5748 4.80646 52.281 4.24118C51.9364 4.09004 51.6039 3.91471 51.2472 3.79378C51.2079 3.81797 51.1656 3.81494 51.1233 3.79983C50.2375 3.50963 49.3186 3.36453 48.3936 3.3071C47.5442 3.25571 46.6917 3.3071 45.8483 3.41895C45.1531 3.51265 44.4699 3.65775 43.7928 3.83913C42.4778 4.19282 41.2142 4.67346 39.996 5.27501C39.5275 5.50777 39.074 5.77076 38.6115 6.01562C38.4574 6.09723 38.2971 6.16978 38.149 6.25745C36.825 7.04642 35.5403 7.89585 34.322 8.84202C34.0167 9.0778 33.7054 9.30754 33.4212 9.56449C33.2368 9.73074 33.0585 9.90003 32.859 10.0451C32.8227 10.0723 32.7834 10.0995 32.7381 10.1267C32.7048 10.157 32.6716 10.1842 32.6383 10.2114V10.2174C32.6232 10.2567 32.6081 10.293 32.5839 10.3142C32.5688 10.3263 32.5537 10.3323 32.5355 10.3353C32.5265 10.3353 32.5144 10.3353 32.5053 10.3353H32.4992C32.4992 10.3353 32.4811 10.3293 32.469 10.3263C32.4599 10.3323 32.4509 10.3383 32.4448 10.3444C32.339 10.42 32.2816 10.5499 32.1849 10.6255C32.1698 10.6376 32.1546 10.6467 32.1395 10.6557C31.8856 10.7888 31.7314 11.0276 31.5047 11.1908C31.2871 11.348 31.1057 11.5566 30.9062 11.741C29.9176 12.6509 28.9836 13.6152 28.0586 14.5885C27.7744 14.8878 27.5205 15.2082 27.2484 15.5195C27.0912 15.6979 26.9159 15.8551 26.7618 16.0304C26.3416 16.5111 25.9335 17.0038 25.5193 17.4875C25.211 17.8472 24.9208 18.219 24.6457 18.6029C24.4281 18.9082 24.1681 19.1803 23.9354 19.4735C23.231 20.3774 22.563 21.3084 21.8949 22.2364C21.2359 23.1523 20.6313 24.1046 20.0056 25.0447C19.4433 25.8881 18.9264 26.7617 18.3914 27.6262C18.1949 27.9467 18.0196 28.2792 17.82 28.5996C17.4785 29.1498 17.1611 29.715 16.8618 30.2894C16.6744 30.5131 16.5625 30.7852 16.4205 31.0361C16.1242 31.5621 15.8401 32.0941 15.5831 32.6412C15.5015 32.8166 15.3836 32.9647 15.299 33.14C15.0602 33.6267 14.8183 34.1134 14.5674 34.597C13.9417 35.8122 13.3915 37.0607 12.8202 38.3031C12.2005 39.6453 11.6503 41.0207 11.1062 42.3961C10.7374 43.3302 10.3656 44.2642 10.0724 45.2255C10.024 45.3827 9.93334 45.5248 9.87893 45.6789C9.59477 46.5072 9.31062 47.3325 9.04159 48.1638C8.79069 48.9285 8.5549 49.6994 8.32818 50.4702C8.11054 51.2138 7.90196 51.9575 7.70245 52.7041C7.31249 54.1521 6.95579 55.6091 6.65048 57.0752C6.57189 57.4652 6.49329 57.8551 6.41772 58.2451C6.15775 59.5721 5.92801 60.9082 5.74059 62.2504C5.56527 63.5261 5.42017 64.8047 5.3053 66.0865C5.29623 66.2043 5.28716 66.3222 5.27809 66.4401C5.22368 67.1414 5.18136 67.8458 5.15415 68.5531C5.1209 69.3602 5.11486 70.1673 5.10881 70.9745C5.10881 71.3584 5.14811 71.7453 5.14509 72.1322C5.13904 72.7217 5.19043 73.3081 5.22368 73.8946C5.23577 74.1092 5.24484 74.3268 5.266 74.5445C5.26902 74.5808 5.27507 74.6201 5.27809 74.6563C5.34762 75.2216 5.39296 75.7899 5.47156 76.3522C5.54713 76.8993 5.6227 77.4465 5.72246 77.9876C5.86756 78.7433 6.00358 79.499 6.23635 80.2336C6.3089 80.4633 6.34819 80.7051 6.4147 80.9409C6.55375 81.4548 6.72001 81.9626 6.90138 82.4614C7.16437 83.1778 7.46666 83.8792 7.79313 84.5684C8.29796 85.6264 8.92369 86.6118 9.65825 87.5248C10.3535 88.3923 11.1485 89.1571 12.0584 89.798C12.0947 89.8252 12.134 89.8494 12.1733 89.8735C12.2398 89.9159 12.3063 89.9582 12.3728 90.0005C12.4091 90.0247 12.4484 90.0489 12.4877 90.0731C12.6146 90.1517 12.7386 90.2333 12.8595 90.3209C12.8595 90.3209 12.8625 90.3209 12.8655 90.324C12.9018 90.3512 12.9381 90.3784 12.9744 90.4086C12.9744 90.4146 12.9804 90.4207 12.9834 90.4267C13.0046 90.457 13.0469 90.46 13.0802 90.4751C14.6521 91.1704 16.2209 91.8656 17.7928 92.5609C17.8563 92.5881 17.9168 92.6304 17.9924 92.6123C17.9833 92.5972 17.9772 92.5851 17.9682 92.57C17.9017 92.4823 17.7959 92.449 17.7052 92.3916C17.2245 92.0863 16.7681 91.7447 16.3419 91.3729C16.1151 91.1764 15.8945 90.9678 15.6829 90.7532C14.8727 89.931 14.1896 89.0181 13.6092 88.0417C13.3976 87.685 13.1981 87.3192 13.0106 86.9444C12.8988 86.7207 12.79 86.494 12.6872 86.2642C12.6418 86.1645 12.5995 86.0677 12.5572 85.968C12.5149 85.8682 12.4726 85.7715 12.4302 85.6717C11.8378 84.251 11.4085 82.7819 11.0851 81.2825C10.9883 80.8381 10.9037 80.3907 10.8251 79.9403C10.6679 79.0214 10.55 78.0994 10.4623 77.1714C10.3747 76.2464 10.3233 75.3153 10.2931 74.3843C10.2628 73.3988 10.2689 72.4103 10.2991 71.4249C10.3021 71.3584 10.3021 71.2919 10.3052 71.2254C10.3233 70.7115 10.3475 70.1976 10.3747 69.6837C10.4049 69.1728 10.4412 68.6589 10.4835 68.1481C10.4926 68.0362 10.5047 67.9244 10.5198 67.7672C10.5198 67.7521 10.5228 67.7369 10.5228 67.7218C10.5409 67.5163 10.5591 67.3107 10.5833 67.1052C10.677 66.1862 10.7949 65.2703 10.9248 64.3574C11.0609 63.4082 11.215 62.465 11.3843 61.5249C11.4055 61.41 11.4297 61.2982 11.4508 61.1833C11.4538 61.1622 11.4599 61.141 11.4629 61.1168C11.475 61.0594 11.4841 61.002 11.4962 60.9445C11.5234 60.7994 11.5506 60.6573 11.5778 60.5153C11.6957 59.9137 11.8196 59.3122 11.9526 58.7136C12.1068 58.0123 12.2731 57.314 12.4454 56.6188C12.6358 55.8449 12.8353 55.0741 13.0469 54.3063C13.0469 54.2942 13.053 54.2821 13.056 54.27C13.192 53.7803 13.3341 53.2906 13.4792 52.8039C13.8329 51.6189 14.1986 50.437 14.5916 49.2641C14.8062 48.6293 15.0299 47.9975 15.2566 47.3687C15.6859 46.1807 16.1363 45.0018 16.6109 43.835C17.5026 41.6313 18.47 39.4578 19.5189 37.3176C19.7124 36.9216 19.9089 36.5256 20.1084 36.1327C20.5799 35.2016 21.0697 34.2766 21.5715 33.3607C21.7045 33.1158 21.8405 32.871 21.9735 32.6291C21.9856 32.611 21.9977 32.5898 22.0067 32.5717C22.0219 32.5445 22.034 32.5173 22.0309 32.484C22.0491 32.4538 22.0702 32.4236 22.0853 32.3964C22.2304 32.1394 22.3755 31.8825 22.5237 31.6255C22.8199 31.1147 23.1161 30.6068 23.4215 30.099C23.6361 29.7423 23.8537 29.3856 24.0714 29.0319C24.3162 28.6329 24.5641 28.2369 24.818 27.8439C25.1354 27.3481 25.4589 26.8524 25.7854 26.3627C26.13 25.8458 26.4806 25.3379 26.8373 24.8301C27.0489 24.5248 27.2635 24.2225 27.4782 23.9172C27.4782 23.9111 27.4782 23.905 27.4782 23.899C27.4782 23.896 27.4812 23.8899 27.4842 23.8869C27.4903 23.8779 27.5024 23.8748 27.5144 23.8748C27.5749 23.7902 27.6323 23.7025 27.6958 23.6179C30.0779 20.3471 32.6806 17.2638 35.6098 14.4646C36.6648 13.458 37.753 12.4967 38.8927 11.5928C39.3461 11.2301 39.8086 10.8794 40.2802 10.5348L40.3981 10.4502C40.5945 10.3081 40.7941 10.1691 40.9936 10.03C41.9548 9.36498 42.9403 8.74528 43.959 8.18907C44.1525 8.08327 44.349 7.98049 44.5455 7.88074C44.6936 7.80517 44.8387 7.72959 44.9868 7.65704C45.1138 7.59356 45.2407 7.53311 45.3677 7.47265C45.8785 7.23384 46.3955 7.01015 46.9245 6.80761C48.6052 6.16072 50.3343 5.71937 52.1389 5.62264C53.4992 5.55009 54.8384 5.67101 56.1503 6.06701C56.2078 6.08514 56.2652 6.11235 56.3256 6.08817L56.3287 6.08514Z"
    fill="#FDBF41" />
  <path
    d="M27.4843 23.8832C27.4843 23.8832 27.5024 23.8711 27.5145 23.8711C27.5145 23.8832 27.5085 23.8923 27.5024 23.8983C27.4964 23.9043 27.4873 23.9074 27.4752 23.9104C27.4752 23.9043 27.4752 23.8983 27.4752 23.8923C27.4752 23.8892 27.4782 23.8832 27.4812 23.8802L27.4843 23.8832Z"
    fill="#C18B00" />
  <path
    d="M32.4962 10.2414C32.5144 10.2202 32.5355 10.2081 32.5657 10.2051C32.5839 10.2051 32.6081 10.2051 32.6322 10.2111V10.2172C32.6171 10.2565 32.602 10.2927 32.5778 10.3139C32.5627 10.326 32.5476 10.332 32.5295 10.3351C32.5204 10.3351 32.5083 10.3351 32.4992 10.3351H32.4932C32.4932 10.3351 32.4751 10.329 32.463 10.326C32.469 10.2897 32.4811 10.2595 32.4992 10.2414H32.4962Z"
    fill="#C18B00" />
  <path
    d="M50.963 3.66939C49.7932 3.14643 48.6203 2.63859 47.4565 2.10958C46.1234 1.50198 44.7389 1.12714 43.2728 1.05762C42.904 1.05762 42.5322 1.05762 42.1634 1.06064C42.0183 1.06064 41.8732 1.06064 41.7311 1.06064C40.9936 1.09994 40.265 1.20876 39.5426 1.36293C37.4114 1.81636 35.4284 2.65068 33.527 3.6966C31.6135 4.74856 29.8361 6.00608 28.1463 7.38452C27.9317 7.55985 27.699 7.72006 27.5115 7.93166C27.4964 7.93771 27.4813 7.9498 27.4722 7.96491V7.98305C27.4722 7.98305 27.4662 7.98305 27.4632 7.98305C27.4571 7.98305 27.4541 7.98305 27.4541 7.98305C27.4057 8.02235 27.3574 8.05862 27.309 8.09792C25.4378 9.70005 23.6997 11.4382 22.0552 13.2731C20.1024 15.4556 18.3008 17.7591 16.6171 20.1532C14.1081 23.7202 11.8862 27.4625 9.90625 31.3469C8.57013 33.9647 7.35493 36.64 6.26065 39.3696C5.12102 42.2172 4.0751 45.101 3.23474 48.0544C3.14103 48.3808 3.02616 48.7043 2.93245 49.0308C2.24323 51.4642 1.64772 53.9188 1.17917 56.4036C0.780151 58.5105 0.462748 60.6266 0.254169 62.7607C0.1 64.3084 -0.0057994 65.8592 0.000246369 67.416C0.000246369 68.1233 0.00326835 68.8307 0.00629124 69.538C0.0153599 69.6348 0.0183837 69.7315 0.0214066 69.8282C0.0244295 69.9794 0.0214075 70.1275 0.0153617 70.2786C0.0214075 71.1402 0.0939565 71.9956 0.175574 72.8541C0.311604 74.2537 0.523206 75.6382 0.834563 77.0076C1.22149 78.7246 1.7505 80.3902 2.5032 81.9833C3.31031 83.6882 4.33507 85.2389 5.71955 86.5357C6.52666 87.2914 7.41539 87.9293 8.41597 88.3978C9.30469 88.815 10.2055 89.2049 11.1063 89.6009C11.723 89.873 12.3336 90.1662 12.9624 90.408C12.9261 90.3808 12.8898 90.3506 12.8536 90.3234C12.8536 90.3234 12.8505 90.3234 12.8475 90.3204C12.7266 90.2327 12.6027 90.1511 12.4757 90.0725C12.4364 90.0483 12.4001 90.0241 12.3608 89.9999C12.2943 89.9576 12.2278 89.9183 12.1613 89.873C12.122 89.8488 12.0858 89.8216 12.0465 89.7974C11.1366 89.1535 10.3446 88.3918 9.64628 87.5242C8.91172 86.6113 8.28598 85.6258 7.78116 84.5678C7.45166 83.8786 7.14938 83.1773 6.88941 82.4609C6.70803 81.9621 6.54178 81.4542 6.40272 80.9404C6.33924 80.7076 6.29692 80.4658 6.22437 80.233C5.99161 79.4984 5.85256 78.7427 5.71048 77.987C5.6077 77.4459 5.53515 76.8988 5.45958 76.3516C5.38099 75.7894 5.33262 75.2211 5.26612 74.6558C5.26309 74.6195 5.25705 74.5802 5.25403 74.5439C5.23287 74.3293 5.2238 74.1117 5.21171 73.894C5.18148 73.3076 5.13009 72.7211 5.13311 72.1317C5.13311 71.7478 5.09381 71.3608 5.09684 70.9739C5.10288 70.1668 5.11195 69.3597 5.14218 68.5526C5.16939 67.8482 5.21171 67.1439 5.26612 66.4396C5.27519 66.3217 5.28425 66.2038 5.29332 66.0859C5.40819 64.8042 5.55329 63.5255 5.72862 62.2499C5.91604 60.9077 6.14578 59.5716 6.40575 58.2445C6.48132 57.8546 6.55991 57.4646 6.63851 57.0747C6.9408 55.6055 7.30052 54.1515 7.69047 52.7036C7.88998 51.9569 8.09856 51.2103 8.31621 50.4697C8.54293 49.6958 8.77871 48.928 9.02961 48.1632C9.30167 47.3319 9.58582 46.5036 9.86695 45.6784C9.91834 45.5212 10.012 45.3791 10.0604 45.225C10.3567 44.2637 10.7255 43.3296 11.0942 42.3955C11.6384 41.0201 12.1885 39.6477 12.8082 38.3025C13.3795 37.0632 13.9297 35.8117 14.5554 34.5965C14.8033 34.1128 15.0482 33.6261 15.287 33.1395C15.3716 32.9671 15.4925 32.816 15.5711 32.6407C15.8281 32.0935 16.1122 31.5615 16.4085 31.0356C16.5506 30.7847 16.6624 30.5126 16.8498 30.2889C17.1491 29.7146 17.4665 29.1493 17.8081 28.5991C18.0076 28.2817 18.1829 27.9462 18.3794 27.6258C18.9114 26.7612 19.4283 25.8906 19.9936 25.0442C20.6194 24.1041 21.2239 23.1519 21.8829 22.236C22.551 21.3079 23.219 20.3769 23.9234 19.473C24.1531 19.1768 24.4131 18.9078 24.6338 18.6025C24.9088 18.2185 25.199 17.8467 25.5074 17.487C25.9215 17.0003 26.3296 16.5076 26.7498 16.03C26.9039 15.8546 27.0793 15.6975 27.2365 15.5191C27.5085 15.2108 27.7624 14.8873 28.0466 14.5881C28.9716 13.6147 29.9057 12.6504 30.8941 11.7405C31.0936 11.5561 31.275 11.3475 31.4926 11.1903C31.7193 11.0271 31.8705 10.7883 32.1274 10.6553C32.1425 10.6462 32.1607 10.6371 32.1728 10.6251C32.2695 10.5495 32.3269 10.4195 32.4327 10.3439C32.4418 10.3379 32.4509 10.3318 32.4569 10.3258C32.463 10.2895 32.4751 10.2593 32.4932 10.2411C32.5113 10.22 32.5325 10.2079 32.5627 10.2049C32.5809 10.2049 32.605 10.2049 32.6292 10.2109C32.6625 10.1837 32.6957 10.1535 32.729 10.1263C32.7743 10.096 32.8106 10.0719 32.8499 10.0447C33.0494 9.89956 33.2278 9.7333 33.4122 9.56402C33.6963 9.30405 34.0107 9.07734 34.313 8.84155C35.5312 7.89539 36.8159 7.04596 38.1399 6.25698C38.2911 6.16932 38.4483 6.09677 38.6024 6.01515C39.065 5.76728 39.5184 5.50428 39.9869 5.27455C41.2052 4.67299 42.4717 4.19235 43.7837 3.83867C44.4608 3.6573 45.144 3.51523 45.8392 3.41849C46.6826 3.30362 47.5351 3.25526 48.3845 3.30665C49.3125 3.36408 50.2285 3.50918 51.1142 3.79938C51.1595 3.81449 51.1988 3.81751 51.2381 3.79333C51.1625 3.71171 51.0477 3.71171 50.954 3.66939H50.963Z"
    fill="#FF1100" />
  <path
    d="M32.5295 9.90281C32.5295 9.90281 32.5144 9.89072 32.5083 9.8877C32.5174 9.89374 32.5234 9.89676 32.5295 9.90281Z"
    fill="#FF1100" />
  <path
    d="M43.2728 1.05441H42.1634C42.0183 1.06046 41.8732 1.06046 41.7311 1.06046C41.7251 1.04232 41.716 1.02418 41.71 1.00604C42.236 1.00604 42.765 1.00605 43.2909 1C43.2849 1.01814 43.2789 1.03627 43.2728 1.05441Z"
    fill="#FEC35E" />
  <path
    d="M27.4632 7.98591H27.4541V7.96777H27.4753V7.98893C27.4753 7.98893 27.4692 7.98893 27.4662 7.98893L27.4632 7.98591Z"
    fill="#C18B00" />
  <path opacity="0.48"
    d="M91.5997 76.4486C91.7509 76.3307 91.7509 76.3186 91.5997 76.2007C91.2491 75.9196 90.8742 75.6748 90.4903 75.442C89.2086 74.6651 87.8392 74.0726 86.4366 73.5587C86.1162 73.4409 85.8048 73.2988 85.4632 73.2383C85.3695 73.1325 85.2305 73.1235 85.1096 73.0842C83.8007 72.6489 82.4676 72.2922 81.1314 71.9506C81.0196 71.9415 80.9108 71.9173 80.814 71.8629C80.1883 71.7269 79.5626 71.5878 78.9399 71.4518C77.7821 71.2009 76.6183 70.9832 75.4514 70.7868C74.5869 70.6417 73.7193 70.5056 72.8518 70.3756C72.1746 70.2759 71.4975 70.1731 70.8143 70.1247C70.7025 70.1066 70.5906 70.0854 70.4758 70.0703C68.0847 69.7771 65.6905 69.5564 63.2874 69.3902C61.7185 69.2844 60.1496 69.1997 58.5777 69.1393C56.5252 69.0607 54.4696 69.0244 52.414 69.0244C49.8657 69.0244 47.3205 69.0879 44.7782 69.2118C41.84 69.3539 38.9078 69.5776 35.9846 69.9041C35.507 69.9585 35.0234 69.9887 34.5518 70.0915C34.4551 70.0643 34.3613 70.0915 34.2646 70.1006C32.1818 70.3575 30.1081 70.6749 28.0466 71.0649C26.8284 71.2946 25.6162 71.5485 24.4131 71.8357L24.3889 71.875C24.3889 71.875 24.0775 76.3549 24.7668 80.729C25.9548 81.0102 27.1488 81.2611 28.3459 81.4848C29.416 81.6843 30.489 81.8747 31.5682 82.0289C33.0796 82.2465 34.5941 82.4672 36.1146 82.6244C37.5928 82.7785 39.068 82.9388 40.5492 83.0476C41.4258 83.1111 42.2994 83.1866 43.1761 83.238C44.4729 83.3136 45.7727 83.3771 47.0696 83.4224C48.2545 83.4647 49.4395 83.498 50.6245 83.5131C52.5198 83.5373 54.4182 83.5282 56.3135 83.4889C58.1394 83.4496 59.9652 83.3801 61.788 83.2773C63.9614 83.1564 66.1319 82.9841 68.2993 82.7604C71.6033 82.4188 74.8892 81.9593 78.1448 81.3094C80.9894 80.7411 83.8007 80.0459 86.5273 79.0423C87.7153 78.607 88.8791 78.1082 89.9855 77.4915C90.5477 77.1802 91.0919 76.8416 91.5997 76.4456V76.4486Z"
    fill="url(#paint0_linear_542_72)" />
  <defs>
    <linearGradient id="paint0_linear_542_72" x1="58.1645" y1="70.6897" x2="57.7446" y2="81.5334"
      gradientUnits="userSpaceOnUse">
      <stop offset="0.16" stop-color="#191919" />
      <stop offset="0.97" stop-color="#191919" stop-opacity="0" />
    </linearGradient>
  </defs>
</svg>
  